<?xml version="1.0" encoding="UTF-8"?>
<!--Generator: Apple Native CoreSVG 175.5-->
<!DOCTYPE svg
PUBLIC "-//W3C//DTD SVG 1.1//EN"
       "http://www.w3.org/Graphics/SVG/1.1/DTD/svg11.dtd">
<svg version="1.1" xmlns="http://www.w3.org/2000/svg" xmlns:xlink="http://www.w3.org/1999/xlink" width="3300" height="2200">
 <!--glyph: "", point size: 100.0, font version: "18.0d12e2", template writer version: "101"-->
 <style>.monochrome-0 {fill:#000000}

.SFSymbolsPreview000000 {fill:#000000;opacity:1.0}
</style>
 <g id="Notes">
  <rect height="2200" id="artboard" style="fill:white;opacity:1" width="3300" x="0" y="0"/>
  <line style="fill:none;stroke:black;opacity:1;stroke-width:0.5;" x1="263" x2="3036" y1="292" y2="292"/>
  <text style="stroke:none;fill:black;font-family:sans-serif;font-size:13;font-weight:bold;" transform="matrix(1 0 0 1 263 322)">Weight/Scale Variations</text>
  <text style="stroke:none;fill:black;font-family:sans-serif;font-size:13;text-anchor:middle;" transform="matrix(1 0 0 1 559.711 322)">Ultralight</text>
  <text style="stroke:none;fill:black;font-family:sans-serif;font-size:13;text-anchor:middle;" transform="matrix(1 0 0 1 856.422 322)">Thin</text>
  <text style="stroke:none;fill:black;font-family:sans-serif;font-size:13;text-anchor:middle;" transform="matrix(1 0 0 1 1153.13 322)">Light</text>
  <text style="stroke:none;fill:black;font-family:sans-serif;font-size:13;text-anchor:middle;" transform="matrix(1 0 0 1 1449.84 322)">Regular</text>
  <text style="stroke:none;fill:black;font-family:sans-serif;font-size:13;text-anchor:middle;" transform="matrix(1 0 0 1 1746.56 322)">Medium</text>
  <text style="stroke:none;fill:black;font-family:sans-serif;font-size:13;text-anchor:middle;" transform="matrix(1 0 0 1 2043.27 322)">Semibold</text>
  <text style="stroke:none;fill:black;font-family:sans-serif;font-size:13;text-anchor:middle;" transform="matrix(1 0 0 1 2339.98 322)">Bold</text>
  <text style="stroke:none;fill:black;font-family:sans-serif;font-size:13;text-anchor:middle;" transform="matrix(1 0 0 1 2636.69 322)">Heavy</text>
  <text style="stroke:none;fill:black;font-family:sans-serif;font-size:13;text-anchor:middle;" transform="matrix(1 0 0 1 2933.4 322)">Black</text>
  <line style="fill:none;stroke:black;opacity:1;stroke-width:0.5;" x1="263" x2="3036" y1="1903" y2="1903"/>
  <g transform="matrix(1 0 0 1 263 1933)">
   <path d="M9.24805 0.830078C13.5547 0.830078 17.1387-2.74414 17.1387-7.05078C17.1387-11.3574 13.5449-14.9316 9.23828-14.9316C4.94141-14.9316 1.36719-11.3574 1.36719-7.05078C1.36719-2.74414 4.95117 0.830078 9.24805 0.830078ZM9.24805-0.654297C5.70312-0.654297 2.87109-3.49609 2.87109-7.05078C2.87109-10.6055 5.69336-13.4473 9.23828-13.4473C12.793-13.4473 15.6445-10.6055 15.6445-7.05078C15.6445-3.49609 12.8027-0.654297 9.24805-0.654297ZM5.6543-7.05078C5.6543-6.62109 5.95703-6.32812 6.40625-6.32812L8.50586-6.32812L8.50586-4.20898C8.50586-3.76953 8.79883-3.4668 9.22852-3.4668C9.67773-3.4668 9.9707-3.76953 9.9707-4.20898L9.9707-6.32812L12.0898-6.32812C12.5293-6.32812 12.832-6.62109 12.832-7.05078C12.832-7.49023 12.5293-7.79297 12.0898-7.79297L9.9707-7.79297L9.9707-9.90234C9.9707-10.3516 9.67773-10.6543 9.22852-10.6543C8.79883-10.6543 8.50586-10.3516 8.50586-9.90234L8.50586-7.79297L6.40625-7.79297C5.95703-7.79297 5.6543-7.49023 5.6543-7.05078Z"/>
  </g>
  <g transform="matrix(1 0 0 1 281.867 1933)">
   <path d="M11.709 2.91016C17.1582 2.91016 21.6699-1.61133 21.6699-7.05078C21.6699-12.5 17.1484-17.0117 11.6992-17.0117C6.25977-17.0117 1.74805-12.5 1.74805-7.05078C1.74805-1.61133 6.26953 2.91016 11.709 2.91016ZM11.709 1.25C7.09961 1.25 3.41797-2.44141 3.41797-7.05078C3.41797-11.6602 7.08984-15.3516 11.6992-15.3516C16.3086-15.3516 20.0098-11.6602 20.0098-7.05078C20.0098-2.44141 16.3184 1.25 11.709 1.25ZM7.17773-7.05078C7.17773-6.57227 7.50977-6.25 8.00781-6.25L10.8789-6.25L10.8789-3.36914C10.8789-2.88086 11.2109-2.53906 11.6895-2.53906C12.1777-2.53906 12.5195-2.87109 12.5195-3.36914L12.5195-6.25L15.4004-6.25C15.8887-6.25 16.2305-6.57227 16.2305-7.05078C16.2305-7.53906 15.8887-7.88086 15.4004-7.88086L12.5195-7.88086L12.5195-10.752C12.5195-11.25 12.1777-11.5918 11.6895-11.5918C11.2109-11.5918 10.8789-11.25 10.8789-10.752L10.8789-7.88086L8.00781-7.88086C7.50977-7.88086 7.17773-7.53906 7.17773-7.05078Z"/>
  </g>
  <g transform="matrix(1 0 0 1 305.646 1933)">
   <path d="M14.9707 5.66406C21.9336 5.66406 27.6953-0.0976562 27.6953-7.05078C27.6953-14.0137 21.9238-19.7754 14.9609-19.7754C8.00781-19.7754 2.25586-14.0137 2.25586-7.05078C2.25586-0.0976562 8.01758 5.66406 14.9707 5.66406ZM14.9707 3.84766C8.93555 3.84766 4.08203-1.01562 4.08203-7.05078C4.08203-13.0957 8.92578-17.9492 14.9609-17.9492C21.0059-17.9492 25.8691-13.0957 25.8691-7.05078C25.8691-1.01562 21.0156 3.84766 14.9707 3.84766ZM9.19922-7.05078C9.19922-6.5332 9.57031-6.17188 10.1172-6.17188L14.0625-6.17188L14.0625-2.2168C14.0625-1.67969 14.4336-1.29883 14.9512-1.29883C15.4883-1.29883 15.8594-1.66992 15.8594-2.2168L15.8594-6.17188L19.8145-6.17188C20.3516-6.17188 20.7324-6.5332 20.7324-7.05078C20.7324-7.59766 20.3613-7.96875 19.8145-7.96875L15.8594-7.96875L15.8594-11.9141C15.8594-12.4609 15.4883-12.8418 14.9512-12.8418C14.4336-12.8418 14.0625-12.4609 14.0625-11.9141L14.0625-7.96875L10.1172-7.96875C9.57031-7.96875 9.19922-7.59766 9.19922-7.05078Z"/>
  </g>
  <text style="stroke:none;fill:black;font-family:sans-serif;font-size:13;font-weight:bold;" transform="matrix(1 0 0 1 263 1953)">Design Variations</text>
  <text style="stroke:none;fill:black;font-family:sans-serif;font-size:13;" transform="matrix(1 0 0 1 263 1971)">Symbols are supported in up to nine weights and three scales.</text>
  <text style="stroke:none;fill:black;font-family:sans-serif;font-size:13;" transform="matrix(1 0 0 1 263 1989)">For optimal layout with text and other symbols, vertically align</text>
  <text style="stroke:none;fill:black;font-family:sans-serif;font-size:13;" transform="matrix(1 0 0 1 263 2007)">symbols with the adjacent text.</text>
  <line style="fill:none;stroke:#00AEEF;stroke-width:0.5;opacity:1.0;" x1="776" x2="776" y1="1919" y2="1933"/>
  <g transform="matrix(1 0 0 1 776 1933)">
   <path d="M3.31055 0.15625C3.82812 0.15625 4.08203-0.0390625 4.26758-0.585938L5.52734-4.0332L11.2891-4.0332L12.5488-0.585938C12.7344-0.0390625 12.9883 0.15625 13.4961 0.15625C14.0137 0.15625 14.3457-0.15625 14.3457-0.644531C14.3457-0.810547 14.3164-0.966797 14.2383-1.17188L9.6582-13.3691C9.43359-13.9648 9.0332-14.2676 8.4082-14.2676C7.80273-14.2676 7.39258-13.9746 7.17773-13.3789L2.59766-1.16211C2.51953-0.957031 2.49023-0.800781 2.49023-0.634766C2.49023-0.146484 2.80273 0.15625 3.31055 0.15625ZM6.00586-5.51758L8.37891-12.0898L8.42773-12.0898L10.8008-5.51758Z"/>
  </g>
  <line style="fill:none;stroke:#00AEEF;stroke-width:0.5;opacity:1.0;" x1="793.197" x2="793.197" y1="1919" y2="1933"/>
  <text style="stroke:none;fill:black;font-family:sans-serif;font-size:13;font-weight:bold;" transform="matrix(1 0 0 1 776 1953)">Margins</text>
  <text style="stroke:none;fill:black;font-family:sans-serif;font-size:13;" transform="matrix(1 0 0 1 776 1971)">Leading and trailing margins on the left and right side of each symbol</text>
  <text style="stroke:none;fill:black;font-family:sans-serif;font-size:13;" transform="matrix(1 0 0 1 776 1989)">can be adjusted by modifying the x-location of the margin guidelines.</text>
  <text style="stroke:none;fill:black;font-family:sans-serif;font-size:13;" transform="matrix(1 0 0 1 776 2007)">Modifications are automatically applied proportionally to all</text>
  <text style="stroke:none;fill:black;font-family:sans-serif;font-size:13;" transform="matrix(1 0 0 1 776 2025)">scales and weights.</text>
  <g transform="matrix(1 0 0 1 1289 1933)">
   <path d="M2.8418 1.86523L4.54102 3.57422C5.40039 4.44336 6.38672 4.38477 7.31445 3.35938L18.0078-8.42773L17.041-9.4043L6.42578 2.27539C6.07422 2.67578 5.74219 2.77344 5.27344 2.30469L4.10156 1.14258C3.63281 0.683594 3.74023 0.341797 4.14062-0.0195312L15.6152-10.8203L14.6387-11.7871L3.04688-0.898438C2.06055 0.0195312 1.98242 0.996094 2.8418 1.86523ZM9.25781-16.3281C8.83789-15.918 8.80859-15.3418 9.04297-14.9512C9.27734-14.5898 9.73633-14.3555 10.3809-14.5215C11.8457-14.8633 13.3691-14.9219 14.7949-13.9844L14.209-12.5293C13.8672-11.6992 14.043-11.1133 14.5801-10.5664L16.875-8.25195C17.3633-7.76367 17.7734-7.74414 18.3398-7.8418L19.4043-8.03711L20.0684-7.36328L20.0293-6.80664C19.9902-6.30859 20.1172-5.92773 20.6055-5.44922L21.3672-4.70703C21.8457-4.22852 22.4609-4.19922 22.9297-4.66797L25.8398-7.58789C26.3086-8.05664 26.2891-8.65234 25.8105-9.13086L25.0391-9.89258C24.5605-10.3711 24.1895-10.5273 23.7109-10.4883L23.1348-10.4395L22.4902-11.0742L22.7344-12.1973C22.8613-12.7637 22.7051-13.2031 22.1191-13.7891L19.9219-15.9766C16.582-19.2969 12.1484-19.2188 9.25781-16.3281ZM10.752-15.957C13.1836-17.7344 16.4746-17.4316 18.7012-15.2051L21.1328-12.793C21.3672-12.5586 21.4062-12.373 21.3379-12.0312L21.0156-10.5469L22.5195-9.0625L23.5059-9.12109C23.7598-9.13086 23.8379-9.11133 24.0332-8.91602L24.6094-8.33984L22.168-5.89844L21.5918-6.47461C21.3965-6.66992 21.3672-6.74805 21.377-7.01172L21.4453-7.98828L19.9512-9.47266L18.4277-9.21875C18.1055-9.15039 17.959-9.17969 17.7148-9.41406L15.7129-11.416C15.459-11.6504 15.4297-11.8164 15.5859-12.1875L16.4648-14.2773C14.9023-15.7324 12.8711-16.3574 10.8398-15.7617C10.6836-15.7227 10.625-15.8496 10.752-15.957Z"/>
  </g>
  <text style="stroke:none;fill:black;font-family:sans-serif;font-size:13;font-weight:bold;" transform="matrix(1 0 0 1 1289 1953)">Exporting</text>
  <text style="stroke:none;fill:black;font-family:sans-serif;font-size:13;" transform="matrix(1 0 0 1 1289 1971)">Symbols should be outlined when exporting to ensure the</text>
  <text style="stroke:none;fill:black;font-family:sans-serif;font-size:13;" transform="matrix(1 0 0 1 1289 1989)">design is preserved when submitting to Xcode.</text>
  <text id="template-version" style="stroke:none;fill:black;font-family:sans-serif;font-size:13;text-anchor:end;" transform="matrix(1 0 0 1 3036 1933)">Template v.4.0</text>
  <text style="stroke:none;fill:black;font-family:sans-serif;font-size:13;text-anchor:end;" transform="matrix(1 0 0 1 3036 1951)">Requires Xcode 14 or greater</text>
  <text id="descriptive-name" style="stroke:none;fill:black;font-family:sans-serif;font-size:13;text-anchor:end;" transform="matrix(1 0 0 1 3036 1969)">Generated from reddit</text>
  <text style="stroke:none;fill:black;font-family:sans-serif;font-size:13;text-anchor:end;" transform="matrix(1 0 0 1 3036 1987)">Typeset at 100 points</text>
  <text style="stroke:none;fill:black;font-family:sans-serif;font-size:13;" transform="matrix(1 0 0 1 263 726)">Small</text>
  <text style="stroke:none;fill:black;font-family:sans-serif;font-size:13;" transform="matrix(1 0 0 1 263 1156)">Medium</text>
  <text style="stroke:none;fill:black;font-family:sans-serif;font-size:13;" transform="matrix(1 0 0 1 263 1586)">Large</text>
 </g>
 <g id="Guides">
  <g id="H-reference" style="fill:#27AAE1;stroke:none;" transform="matrix(1 0 0 1 339 696)">
   <path d="M0.993654 0L3.63775 0L29.3281-67.1323L30.0303-67.1323L30.0303-70.459L28.1226-70.459ZM11.6885-24.4799L46.9815-24.4799L46.2315-26.7285L12.4385-26.7285ZM55.1196 0L57.7637 0L30.6382-70.459L29.4326-70.459L29.4326-67.1323Z"/>
  </g>
  <line id="Baseline-S" style="fill:none;stroke:#27AAE1;opacity:1;stroke-width:0.5;" x1="263" x2="3036" y1="696" y2="696"/>
  <line id="Capline-S" style="fill:none;stroke:#27AAE1;opacity:1;stroke-width:0.5;" x1="263" x2="3036" y1="625.541" y2="625.541"/>
  <g id="H-reference" style="fill:#27AAE1;stroke:none;" transform="matrix(1 0 0 1 339 1126)">
   <path d="M0.993654 0L3.63775 0L29.3281-67.1323L30.0303-67.1323L30.0303-70.459L28.1226-70.459ZM11.6885-24.4799L46.9815-24.4799L46.2315-26.7285L12.4385-26.7285ZM55.1196 0L57.7637 0L30.6382-70.459L29.4326-70.459L29.4326-67.1323Z"/>
  </g>
  <line id="Baseline-M" style="fill:none;stroke:#27AAE1;opacity:1;stroke-width:0.5;" x1="263" x2="3036" y1="1126" y2="1126"/>
  <line id="Capline-M" style="fill:none;stroke:#27AAE1;opacity:1;stroke-width:0.5;" x1="263" x2="3036" y1="1055.54" y2="1055.54"/>
  <g id="H-reference" style="fill:#27AAE1;stroke:none;" transform="matrix(1 0 0 1 339 1556)">
   <path d="M0.993654 0L3.63775 0L29.3281-67.1323L30.0303-67.1323L30.0303-70.459L28.1226-70.459ZM11.6885-24.4799L46.9815-24.4799L46.2315-26.7285L12.4385-26.7285ZM55.1196 0L57.7637 0L30.6382-70.459L29.4326-70.459L29.4326-67.1323Z"/>
  </g>
  <line id="Baseline-L" style="fill:none;stroke:#27AAE1;opacity:1;stroke-width:0.5;" x1="263" x2="3036" y1="1556" y2="1556"/>
  <line id="Capline-L" style="fill:none;stroke:#27AAE1;opacity:1;stroke-width:0.5;" x1="263" x2="3036" y1="1485.54" y2="1485.54"/>
  <line id="left-margin-Ultralight-S" style="fill:none;stroke:#00AEEF;stroke-width:0.5;opacity:1.0;" x1="515.481" x2="515.481" y1="600.785" y2="720.121"/>
  <line id="right-margin-Ultralight-S" style="fill:none;stroke:#00AEEF;stroke-width:0.5;opacity:1.0;" x1="603.941" x2="603.941" y1="600.785" y2="720.121"/>
  <line id="left-margin-Regular-S" style="fill:none;stroke:#00AEEF;stroke-width:0.5;opacity:1.0;" x1="1403.46" x2="1403.46" y1="600.785" y2="720.121"/>
  <line id="right-margin-Regular-S" style="fill:none;stroke:#00AEEF;stroke-width:0.5;opacity:1.0;" x1="1496.22" x2="1496.22" y1="600.785" y2="720.121"/>
  <line id="left-margin-Black-S" style="fill:none;stroke:#00AEEF;stroke-width:0.5;opacity:1.0;" x1="2884.4" x2="2884.4" y1="600.785" y2="720.121"/>
  <line id="right-margin-Black-S" style="fill:none;stroke:#00AEEF;stroke-width:0.5;opacity:1.0;" x1="2982.4" x2="2982.4" y1="600.785" y2="720.121"/>
 </g>
 <g id="Symbols">
  <g id="Black-S" transform="matrix(1 0 0 1 2884.4 696)">
   <path class="monochrome-0 SFSymbolsPreview000000" d="M90.6003-33.8298C90.6633-30.2819 88.6692-27.0164 85.4985-25.4309C85.5608-24.5046 85.5608-23.5784 85.4985-22.6521C85.4985-8.49145 69.0144 3 48.6836 3C28.3535 3 11.8694-8.50732 11.8694-22.6521C11.8066-23.5784 11.8066-24.5046 11.8694-25.4309C10.9429-25.8391 10.1111-26.4199 9.38892-27.095C5.66821-30.5802 5.49561-36.4203 8.98071-40.1251C12.4661-43.8458 18.3064-44.0186 22.011-40.5336C29.2957-45.463 37.8513-48.1632 46.6428-48.3046L51.3057-70.2206C51.3057-70.2362 51.3057-70.2362 51.3057-70.2518C51.5413-71.3193 52.5928-71.9788 53.6445-71.7433L69.124-68.6505C70.113-70.3774 71.9026-71.5392 73.8967-71.7433C77.3662-72.12 80.4746-69.6083 80.8513-66.1388C81.2278-62.6692 78.7161-59.5608 75.2468-59.1838C71.7773-58.8073 68.6689-61.319 68.2922-64.7886L54.7751-67.6301L50.6777-47.9276C59.3594-47.7393 67.8054-45.0549 74.9954-40.1566C76.6284-41.7108 78.7791-42.6371 81.0396-42.7157C86.1418-42.8882 90.4121-38.9164 90.6003-33.8298ZM63.0015-20.9567L62.9541-20.7211C63.0645-20.7211 63.1587-20.7211 63.2683-20.7211C66.7534-20.8625 69.4695-23.7982 69.3281-27.2832C69.3281-30.7686 66.4866-33.6102 63.0015-33.6102C59.5164-33.6102 56.6746-30.7686 56.6746-27.2832C56.6746-23.7982 59.5164-20.9567 63.0015-20.9567ZM27.4431-27.5033C27.4431-24.0179 30.269-21.208 33.7698-21.1765C37.2546-21.1765 40.0962-24.0179 40.0962-27.5033C40.0962-30.9883 37.2546-33.8298 33.7698-33.8298C30.2847-33.8298 27.4431-30.9883 27.4431-27.5033ZM64.1321-10.14L64.1321-10.14L64.1321-9.88879L64.1321-9.88879C64.8223-10.564 64.8384-11.6942 64.1631-12.3849C63.488-13.0757 62.3579-13.0913 61.6672-12.4163C57.8206-9.66895 53.1738-8.31873 48.4641-8.56995C43.7544-8.35046 39.1228-9.76318 35.3242-12.542C34.6802-13.0601 33.7854-13.0601 33.1575-12.542C32.4353-11.9453 32.3254-10.8621 32.9216-10.14C37.4119-6.76477 42.9065-5.0376 48.5271-5.27332C54.1472-5.0376 59.6418-6.76477 64.1321-10.14Z"/>
  </g>
  <g id="Regular-S" transform="matrix(1 0 0 1 1403.46 696)">
   <path class="monochrome-0 SFSymbolsPreview000000" d="M85.5096-35.1301C85.5688-31.7848 83.689-28.7058 80.6987-27.2107C80.7579-26.3375 80.7579-25.464 80.6987-24.5907C80.6987-11.2386 65.1561-0.403198 45.9867-0.403198C26.8173-0.403198 11.2745-11.2537 11.2745-24.5907C11.2152-25.464 11.2152-26.3375 11.2745-27.2107C10.4012-27.5957 9.6167-28.1432 8.93567-28.7799C5.42761-32.066 5.26465-37.5726 8.55078-41.066C11.837-44.5741 17.3436-44.7369 20.8369-41.4508C27.7054-46.0989 35.7728-48.6448 44.0623-48.7781L48.4586-69.4425C48.4586-69.4573 48.4586-69.4573 48.4586-69.4723C48.6807-70.4789 49.6725-71.1006 50.6643-70.8783L65.2596-67.9624C66.1923-69.5906 67.8798-70.6859 69.7598-70.8783C73.0309-71.2339 75.9619-68.8652 76.3171-65.5939C76.6725-62.3226 74.3041-59.3916 71.0327-59.0365C67.7612-58.6812 64.8304-61.0494 64.4751-64.3209L51.73-67.0001L47.8666-48.423C56.0524-48.2454 64.0162-45.714 70.7959-41.0956C72.3353-42.561 74.3632-43.4344 76.4949-43.5084C81.3057-43.6713 85.332-39.9261 85.5096-35.1301ZM59.4866-22.9921L59.4423-22.77C59.5458-22.77 59.6346-22.77 59.7384-22.77C63.0245-22.9033 65.5852-25.6713 65.4521-28.9575C65.4521-32.2437 62.7727-34.9229 59.4866-34.9229C56.2004-34.9229 53.5211-32.2437 53.5211-28.9575C53.5211-25.6713 56.2004-22.9921 59.4866-22.9921ZM25.9587-29.1648C25.9587-25.8785 28.6232-23.2289 31.9242-23.1993C35.2103-23.1993 37.8895-25.8785 37.8895-29.1648C37.8895-32.4509 35.2103-35.1301 31.9242-35.1301C28.6379-35.1301 25.9587-32.4509 25.9587-29.1648ZM60.5524-12.793L60.5524-12.793L60.5524-12.5563L60.5524-12.5563C61.2037-13.1927 61.2185-14.2584 60.5819-14.9099C59.9454-15.5612 58.8798-15.5759 58.2284-14.9395C54.6018-12.349 50.2202-11.0758 45.7794-11.3129C41.3386-11.1056 36.9719-12.4377 33.3896-15.058C32.7827-15.5464 31.939-15.5464 31.3469-15.058C30.666-14.4952 30.5624-13.4739 31.1249-12.793C35.3584-9.61047 40.5393-7.98218 45.8386-8.20422C51.1381-7.98218 56.3188-9.61047 60.5524-12.793Z"/>
  </g>
  <g id="Ultralight-S" transform="matrix(1 0 0 1 515.481 696)">
   <path class="monochrome-0 SFSymbolsPreview000000" d="M81.5174-34.156C81.5734-30.9927 79.7959-28.0815 76.9686-26.668C77.0245-25.842 77.0245-25.0162 76.9686-24.1904C76.9686-11.5656 62.2723-1.32031 44.1469-1.32031C26.0214-1.32031 11.3251-11.5796 11.3251-24.1904C11.2691-25.0162 11.2691-25.842 11.3251-26.668C10.4993-27.0319 9.75751-27.5497 9.11365-28.1515C5.79651-31.2588 5.64258-36.4653 8.74976-39.7686C11.857-43.0858 17.0637-43.2399 20.3669-40.1324C26.8611-44.5275 34.4893-46.9349 42.3273-47.0608L46.4843-66.5999C46.4843-66.6139 46.4843-66.6139 46.4843-66.6279C46.6942-67.5796 47.632-68.1675 48.5697-67.9575L62.3702-65.2002C63.252-66.7397 64.8476-67.7755 66.6252-67.9575C69.7184-68.2933 72.4897-66.0541 72.8256-62.9607C73.1616-59.8676 70.9221-57.0962 67.8289-56.7604C64.7357-56.4246 61.9644-58.6638 61.6284-61.7572L49.5775-64.2904L45.9244-46.7247C53.6644-46.5568 61.1946-44.1636 67.6049-39.7966C69.0605-41.1823 70.9781-42.0081 72.9935-42.078C77.5425-42.2319 81.3495-38.6908 81.5174-34.156ZM56.9116-22.6787L56.8697-22.469C56.9677-22.469 57.0516-22.469 57.1496-22.469C60.2568-22.595 62.6782-25.2122 62.5522-28.3193C62.5522-31.4265 60.0188-33.96 56.9116-33.96C53.8044-33.96 51.2711-31.4265 51.2711-28.3193C51.2711-25.2122 53.8044-22.6787 56.9116-22.6787ZM25.2097-28.5154C25.2097-25.4082 27.729-22.903 30.8502-22.8749C33.9575-22.8749 36.4907-25.4082 36.4907-28.5154C36.4907-31.6227 33.9575-34.156 30.8502-34.156C27.743-34.156 25.2097-31.6227 25.2097-28.5154ZM57.9194-13.0354L57.9194-13.0354L57.9194-12.8114L57.9194-12.8114C58.5353-13.4133 58.5492-14.4209 57.9473-15.0369C57.3455-15.6527 56.3378-15.6667 55.7219-15.0649C52.2928-12.6154 48.1498-11.4117 43.9509-11.6357C39.7519-11.4397 35.623-12.6996 32.2358-15.1768C31.662-15.6387 30.8642-15.6387 30.3043-15.1768C29.6605-14.6449 29.5625-13.6792 30.0944-13.0354C34.0974-10.0262 38.9962-8.48645 44.0069-8.69653C49.0176-8.48645 53.9164-10.0262 57.9194-13.0354Z"/>
  </g>
 </g>
</svg>
