<?xml version="1.0" encoding="UTF-8"?>
<!--Generator: Apple Native CoreSVG 175.5-->
<!DOCTYPE svg
PUBLIC "-//W3C//DTD SVG 1.1//EN"
       "http://www.w3.org/Graphics/SVG/1.1/DTD/svg11.dtd">
<svg version="1.1" xmlns="http://www.w3.org/2000/svg" xmlns:xlink="http://www.w3.org/1999/xlink" width="3300" height="2200">
 <!--glyph: "", point size: 100.0, font version: "18.0d12e2", template writer version: "101"-->
 <style>.monochrome-0 {fill:#000000}

.SFSymbolsPreview000000 {fill:#000000;opacity:1.0}
</style>
 <g id="Notes">
  <rect height="2200" id="artboard" style="fill:white;opacity:1" width="3300" x="0" y="0"/>
  <line style="fill:none;stroke:black;opacity:1;stroke-width:0.5;" x1="263" x2="3036" y1="292" y2="292"/>
  <text style="stroke:none;fill:black;font-family:sans-serif;font-size:13;font-weight:bold;" transform="matrix(1 0 0 1 263 322)">Weight/Scale Variations</text>
  <text style="stroke:none;fill:black;font-family:sans-serif;font-size:13;text-anchor:middle;" transform="matrix(1 0 0 1 559.711 322)">Ultralight</text>
  <text style="stroke:none;fill:black;font-family:sans-serif;font-size:13;text-anchor:middle;" transform="matrix(1 0 0 1 856.422 322)">Thin</text>
  <text style="stroke:none;fill:black;font-family:sans-serif;font-size:13;text-anchor:middle;" transform="matrix(1 0 0 1 1153.13 322)">Light</text>
  <text style="stroke:none;fill:black;font-family:sans-serif;font-size:13;text-anchor:middle;" transform="matrix(1 0 0 1 1449.84 322)">Regular</text>
  <text style="stroke:none;fill:black;font-family:sans-serif;font-size:13;text-anchor:middle;" transform="matrix(1 0 0 1 1746.56 322)">Medium</text>
  <text style="stroke:none;fill:black;font-family:sans-serif;font-size:13;text-anchor:middle;" transform="matrix(1 0 0 1 2043.27 322)">Semibold</text>
  <text style="stroke:none;fill:black;font-family:sans-serif;font-size:13;text-anchor:middle;" transform="matrix(1 0 0 1 2339.98 322)">Bold</text>
  <text style="stroke:none;fill:black;font-family:sans-serif;font-size:13;text-anchor:middle;" transform="matrix(1 0 0 1 2636.69 322)">Heavy</text>
  <text style="stroke:none;fill:black;font-family:sans-serif;font-size:13;text-anchor:middle;" transform="matrix(1 0 0 1 2933.4 322)">Black</text>
  <line style="fill:none;stroke:black;opacity:1;stroke-width:0.5;" x1="263" x2="3036" y1="1903" y2="1903"/>
  <g transform="matrix(1 0 0 1 263 1933)">
   <path d="M9.24805 0.830078C13.5547 0.830078 17.1387-2.74414 17.1387-7.05078C17.1387-11.3574 13.5449-14.9316 9.23828-14.9316C4.94141-14.9316 1.36719-11.3574 1.36719-7.05078C1.36719-2.74414 4.95117 0.830078 9.24805 0.830078ZM9.24805-0.654297C5.70312-0.654297 2.87109-3.49609 2.87109-7.05078C2.87109-10.6055 5.69336-13.4473 9.23828-13.4473C12.793-13.4473 15.6445-10.6055 15.6445-7.05078C15.6445-3.49609 12.8027-0.654297 9.24805-0.654297ZM5.6543-7.05078C5.6543-6.62109 5.95703-6.32812 6.40625-6.32812L8.50586-6.32812L8.50586-4.20898C8.50586-3.76953 8.79883-3.4668 9.22852-3.4668C9.67773-3.4668 9.9707-3.76953 9.9707-4.20898L9.9707-6.32812L12.0898-6.32812C12.5293-6.32812 12.832-6.62109 12.832-7.05078C12.832-7.49023 12.5293-7.79297 12.0898-7.79297L9.9707-7.79297L9.9707-9.90234C9.9707-10.3516 9.67773-10.6543 9.22852-10.6543C8.79883-10.6543 8.50586-10.3516 8.50586-9.90234L8.50586-7.79297L6.40625-7.79297C5.95703-7.79297 5.6543-7.49023 5.6543-7.05078Z"/>
  </g>
  <g transform="matrix(1 0 0 1 281.867 1933)">
   <path d="M11.709 2.91016C17.1582 2.91016 21.6699-1.61133 21.6699-7.05078C21.6699-12.5 17.1484-17.0117 11.6992-17.0117C6.25977-17.0117 1.74805-12.5 1.74805-7.05078C1.74805-1.61133 6.26953 2.91016 11.709 2.91016ZM11.709 1.25C7.09961 1.25 3.41797-2.44141 3.41797-7.05078C3.41797-11.6602 7.08984-15.3516 11.6992-15.3516C16.3086-15.3516 20.0098-11.6602 20.0098-7.05078C20.0098-2.44141 16.3184 1.25 11.709 1.25ZM7.17773-7.05078C7.17773-6.57227 7.50977-6.25 8.00781-6.25L10.8789-6.25L10.8789-3.36914C10.8789-2.88086 11.2109-2.53906 11.6895-2.53906C12.1777-2.53906 12.5195-2.87109 12.5195-3.36914L12.5195-6.25L15.4004-6.25C15.8887-6.25 16.2305-6.57227 16.2305-7.05078C16.2305-7.53906 15.8887-7.88086 15.4004-7.88086L12.5195-7.88086L12.5195-10.752C12.5195-11.25 12.1777-11.5918 11.6895-11.5918C11.2109-11.5918 10.8789-11.25 10.8789-10.752L10.8789-7.88086L8.00781-7.88086C7.50977-7.88086 7.17773-7.53906 7.17773-7.05078Z"/>
  </g>
  <g transform="matrix(1 0 0 1 305.646 1933)">
   <path d="M14.9707 5.66406C21.9336 5.66406 27.6953-0.0976562 27.6953-7.05078C27.6953-14.0137 21.9238-19.7754 14.9609-19.7754C8.00781-19.7754 2.25586-14.0137 2.25586-7.05078C2.25586-0.0976562 8.01758 5.66406 14.9707 5.66406ZM14.9707 3.84766C8.93555 3.84766 4.08203-1.01562 4.08203-7.05078C4.08203-13.0957 8.92578-17.9492 14.9609-17.9492C21.0059-17.9492 25.8691-13.0957 25.8691-7.05078C25.8691-1.01562 21.0156 3.84766 14.9707 3.84766ZM9.19922-7.05078C9.19922-6.5332 9.57031-6.17188 10.1172-6.17188L14.0625-6.17188L14.0625-2.2168C14.0625-1.67969 14.4336-1.29883 14.9512-1.29883C15.4883-1.29883 15.8594-1.66992 15.8594-2.2168L15.8594-6.17188L19.8145-6.17188C20.3516-6.17188 20.7324-6.5332 20.7324-7.05078C20.7324-7.59766 20.3613-7.96875 19.8145-7.96875L15.8594-7.96875L15.8594-11.9141C15.8594-12.4609 15.4883-12.8418 14.9512-12.8418C14.4336-12.8418 14.0625-12.4609 14.0625-11.9141L14.0625-7.96875L10.1172-7.96875C9.57031-7.96875 9.19922-7.59766 9.19922-7.05078Z"/>
  </g>
  <text style="stroke:none;fill:black;font-family:sans-serif;font-size:13;font-weight:bold;" transform="matrix(1 0 0 1 263 1953)">Design Variations</text>
  <text style="stroke:none;fill:black;font-family:sans-serif;font-size:13;" transform="matrix(1 0 0 1 263 1971)">Symbols are supported in up to nine weights and three scales.</text>
  <text style="stroke:none;fill:black;font-family:sans-serif;font-size:13;" transform="matrix(1 0 0 1 263 1989)">For optimal layout with text and other symbols, vertically align</text>
  <text style="stroke:none;fill:black;font-family:sans-serif;font-size:13;" transform="matrix(1 0 0 1 263 2007)">symbols with the adjacent text.</text>
  <line style="fill:none;stroke:#00AEEF;stroke-width:0.5;opacity:1.0;" x1="776" x2="776" y1="1919" y2="1933"/>
  <g transform="matrix(1 0 0 1 776 1933)">
   <path d="M3.31055 0.15625C3.82812 0.15625 4.08203-0.0390625 4.26758-0.585938L5.52734-4.0332L11.2891-4.0332L12.5488-0.585938C12.7344-0.0390625 12.9883 0.15625 13.4961 0.15625C14.0137 0.15625 14.3457-0.15625 14.3457-0.644531C14.3457-0.810547 14.3164-0.966797 14.2383-1.17188L9.6582-13.3691C9.43359-13.9648 9.0332-14.2676 8.4082-14.2676C7.80273-14.2676 7.39258-13.9746 7.17773-13.3789L2.59766-1.16211C2.51953-0.957031 2.49023-0.800781 2.49023-0.634766C2.49023-0.146484 2.80273 0.15625 3.31055 0.15625ZM6.00586-5.51758L8.37891-12.0898L8.42773-12.0898L10.8008-5.51758Z"/>
  </g>
  <line style="fill:none;stroke:#00AEEF;stroke-width:0.5;opacity:1.0;" x1="793.197" x2="793.197" y1="1919" y2="1933"/>
  <text style="stroke:none;fill:black;font-family:sans-serif;font-size:13;font-weight:bold;" transform="matrix(1 0 0 1 776 1953)">Margins</text>
  <text style="stroke:none;fill:black;font-family:sans-serif;font-size:13;" transform="matrix(1 0 0 1 776 1971)">Leading and trailing margins on the left and right side of each symbol</text>
  <text style="stroke:none;fill:black;font-family:sans-serif;font-size:13;" transform="matrix(1 0 0 1 776 1989)">can be adjusted by modifying the x-location of the margin guidelines.</text>
  <text style="stroke:none;fill:black;font-family:sans-serif;font-size:13;" transform="matrix(1 0 0 1 776 2007)">Modifications are automatically applied proportionally to all</text>
  <text style="stroke:none;fill:black;font-family:sans-serif;font-size:13;" transform="matrix(1 0 0 1 776 2025)">scales and weights.</text>
  <g transform="matrix(1 0 0 1 1289 1933)">
   <path d="M2.8418 1.86523L4.54102 3.57422C5.40039 4.44336 6.38672 4.38477 7.31445 3.35938L18.0078-8.42773L17.041-9.4043L6.42578 2.27539C6.07422 2.67578 5.74219 2.77344 5.27344 2.30469L4.10156 1.14258C3.63281 0.683594 3.74023 0.341797 4.14062-0.0195312L15.6152-10.8203L14.6387-11.7871L3.04688-0.898438C2.06055 0.0195312 1.98242 0.996094 2.8418 1.86523ZM9.25781-16.3281C8.83789-15.918 8.80859-15.3418 9.04297-14.9512C9.27734-14.5898 9.73633-14.3555 10.3809-14.5215C11.8457-14.8633 13.3691-14.9219 14.7949-13.9844L14.209-12.5293C13.8672-11.6992 14.043-11.1133 14.5801-10.5664L16.875-8.25195C17.3633-7.76367 17.7734-7.74414 18.3398-7.8418L19.4043-8.03711L20.0684-7.36328L20.0293-6.80664C19.9902-6.30859 20.1172-5.92773 20.6055-5.44922L21.3672-4.70703C21.8457-4.22852 22.4609-4.19922 22.9297-4.66797L25.8398-7.58789C26.3086-8.05664 26.2891-8.65234 25.8105-9.13086L25.0391-9.89258C24.5605-10.3711 24.1895-10.5273 23.7109-10.4883L23.1348-10.4395L22.4902-11.0742L22.7344-12.1973C22.8613-12.7637 22.7051-13.2031 22.1191-13.7891L19.9219-15.9766C16.582-19.2969 12.1484-19.2188 9.25781-16.3281ZM10.752-15.957C13.1836-17.7344 16.4746-17.4316 18.7012-15.2051L21.1328-12.793C21.3672-12.5586 21.4062-12.373 21.3379-12.0312L21.0156-10.5469L22.5195-9.0625L23.5059-9.12109C23.7598-9.13086 23.8379-9.11133 24.0332-8.91602L24.6094-8.33984L22.168-5.89844L21.5918-6.47461C21.3965-6.66992 21.3672-6.74805 21.377-7.01172L21.4453-7.98828L19.9512-9.47266L18.4277-9.21875C18.1055-9.15039 17.959-9.17969 17.7148-9.41406L15.7129-11.416C15.459-11.6504 15.4297-11.8164 15.5859-12.1875L16.4648-14.2773C14.9023-15.7324 12.8711-16.3574 10.8398-15.7617C10.6836-15.7227 10.625-15.8496 10.752-15.957Z"/>
  </g>
  <text style="stroke:none;fill:black;font-family:sans-serif;font-size:13;font-weight:bold;" transform="matrix(1 0 0 1 1289 1953)">Exporting</text>
  <text style="stroke:none;fill:black;font-family:sans-serif;font-size:13;" transform="matrix(1 0 0 1 1289 1971)">Symbols should be outlined when exporting to ensure the</text>
  <text style="stroke:none;fill:black;font-family:sans-serif;font-size:13;" transform="matrix(1 0 0 1 1289 1989)">design is preserved when submitting to Xcode.</text>
  <text id="template-version" style="stroke:none;fill:black;font-family:sans-serif;font-size:13;text-anchor:end;" transform="matrix(1 0 0 1 3036 1933)">Template v.4.0</text>
  <text style="stroke:none;fill:black;font-family:sans-serif;font-size:13;text-anchor:end;" transform="matrix(1 0 0 1 3036 1951)">Requires Xcode 14 or greater</text>
  <text id="descriptive-name" style="stroke:none;fill:black;font-family:sans-serif;font-size:13;text-anchor:end;" transform="matrix(1 0 0 1 3036 1969)">Generated from mastodon</text>
  <text style="stroke:none;fill:black;font-family:sans-serif;font-size:13;text-anchor:end;" transform="matrix(1 0 0 1 3036 1987)">Typeset at 100 points</text>
  <text style="stroke:none;fill:black;font-family:sans-serif;font-size:13;" transform="matrix(1 0 0 1 263 726)">Small</text>
  <text style="stroke:none;fill:black;font-family:sans-serif;font-size:13;" transform="matrix(1 0 0 1 263 1156)">Medium</text>
  <text style="stroke:none;fill:black;font-family:sans-serif;font-size:13;" transform="matrix(1 0 0 1 263 1586)">Large</text>
 </g>
 <g id="Guides">
  <g id="H-reference" style="fill:#27AAE1;stroke:none;" transform="matrix(1 0 0 1 339 696)">
   <path d="M0.993654 0L3.63775 0L29.3281-67.1323L30.0303-67.1323L30.0303-70.459L28.1226-70.459ZM11.6885-24.4799L46.9815-24.4799L46.2315-26.7285L12.4385-26.7285ZM55.1196 0L57.7637 0L30.6382-70.459L29.4326-70.459L29.4326-67.1323Z"/>
  </g>
  <line id="Baseline-S" style="fill:none;stroke:#27AAE1;opacity:1;stroke-width:0.5;" x1="263" x2="3036" y1="696" y2="696"/>
  <line id="Capline-S" style="fill:none;stroke:#27AAE1;opacity:1;stroke-width:0.5;" x1="263" x2="3036" y1="625.541" y2="625.541"/>
  <g id="H-reference" style="fill:#27AAE1;stroke:none;" transform="matrix(1 0 0 1 339 1126)">
   <path d="M0.993654 0L3.63775 0L29.3281-67.1323L30.0303-67.1323L30.0303-70.459L28.1226-70.459ZM11.6885-24.4799L46.9815-24.4799L46.2315-26.7285L12.4385-26.7285ZM55.1196 0L57.7637 0L30.6382-70.459L29.4326-70.459L29.4326-67.1323Z"/>
  </g>
  <line id="Baseline-M" style="fill:none;stroke:#27AAE1;opacity:1;stroke-width:0.5;" x1="263" x2="3036" y1="1126" y2="1126"/>
  <line id="Capline-M" style="fill:none;stroke:#27AAE1;opacity:1;stroke-width:0.5;" x1="263" x2="3036" y1="1055.54" y2="1055.54"/>
  <g id="H-reference" style="fill:#27AAE1;stroke:none;" transform="matrix(1 0 0 1 339 1556)">
   <path d="M0.993654 0L3.63775 0L29.3281-67.1323L30.0303-67.1323L30.0303-70.459L28.1226-70.459ZM11.6885-24.4799L46.9815-24.4799L46.2315-26.7285L12.4385-26.7285ZM55.1196 0L57.7637 0L30.6382-70.459L29.4326-70.459L29.4326-67.1323Z"/>
  </g>
  <line id="Baseline-L" style="fill:none;stroke:#27AAE1;opacity:1;stroke-width:0.5;" x1="263" x2="3036" y1="1556" y2="1556"/>
  <line id="Capline-L" style="fill:none;stroke:#27AAE1;opacity:1;stroke-width:0.5;" x1="263" x2="3036" y1="1485.54" y2="1485.54"/>
  <line id="left-margin-Ultralight-S" style="fill:none;stroke:#00AEEF;stroke-width:0.5;opacity:1.0;" x1="508.101" x2="508.101" y1="600.785" y2="720.121"/>
  <line id="right-margin-Ultralight-S" style="fill:none;stroke:#00AEEF;stroke-width:0.5;opacity:1.0;" x1="611.321" x2="611.321" y1="600.785" y2="720.121"/>
  <line id="left-margin-Regular-S" style="fill:none;stroke:#00AEEF;stroke-width:0.5;opacity:1.0;" x1="1396.88" x2="1396.88" y1="600.785" y2="720.121"/>
  <line id="right-margin-Regular-S" style="fill:none;stroke:#00AEEF;stroke-width:0.5;opacity:1.0;" x1="1502.8" x2="1502.8" y1="600.785" y2="720.121"/>
  <line id="left-margin-Black-S" style="fill:none;stroke:#00AEEF;stroke-width:0.5;opacity:1.0;" x1="2877.9" x2="2877.9" y1="600.785" y2="720.121"/>
  <line id="right-margin-Black-S" style="fill:none;stroke:#00AEEF;stroke-width:0.5;opacity:1.0;" x1="2988.9" x2="2988.9" y1="600.785" y2="720.121"/>
 </g>
 <g id="Symbols">
  <g id="Black-S" transform="matrix(1 0 0 1 2877.9 696)">
   <path class="monochrome-0 SFSymbolsPreview000000" d="M53.4768-73C63.071-72.9216 72.3057-71.8835 77.6833-69.415C77.6833-69.415 77.7019-69.4067 77.7375-69.3896L77.8452-69.3363C79.1821-68.6584 88.3494-63.4597 88.3494-48.3763L88.3503-48.2708C88.3503-48.2534 88.3506-48.2339 88.3506-48.2124L88.3518-48.059C88.3518-48.0294 88.3518-47.9979 88.3518-47.9645L88.3518-47.4728C88.3459-44.5289 88.2166-35.0023 86.8618-28.0382C85.8328-22.7477 77.6458-16.9576 68.2429-15.8356C63.3398-15.2509 58.5122-14.7134 53.3645-14.9493C44.9458-15.3348 38.3027-16.9576 38.3027-16.9576C38.3027-16.1386 38.3533-15.3586 38.4543-14.6294C39.502-6.68176 46.0916-5.8855 52.5884-5.62842L53.46-5.59656C60.29-5.36304 66.3718-7.27954 66.3718-7.27954L66.6523-1.10852C66.6523-1.10852 61.875 1.45532 53.3645 1.927C48.6716 2.18469 42.8445 1.80896 36.0576 0.013672C21.3381-3.88013 18.8066-19.5612 18.4192-35.472C18.3013-40.1962 18.374-44.6508 18.374-48.3763C18.374-63.6293 27.7488-68.7739 28.9204-69.3575L28.9863-69.3896C29.0217-69.4067 29.0403-69.415 29.0403-69.415C34.4185-71.8835 43.6472-72.9216 53.2412-73L53.4768-73ZM64.321-60.2875C60.3245-60.2875 57.2981-58.7523 55.2976-55.6818L53.3521-52.4229L51.4067-55.6818C49.4058-58.7523 46.3794-60.2875 42.3833-60.2875C38.9292-60.2875 36.1467-59.074 34.022-56.7069C31.9614-54.3398 30.9358-51.1404 30.9358-47.1141L30.9358-27.4141L38.7451-27.4141L38.7451-46.535C38.7451-50.5658 40.4421-52.6116 43.8364-52.6116C47.5891-52.6116 49.4705-50.1847 49.4705-45.3859L49.4705-34.9199L57.2339-34.9199L57.2339-45.3859C57.2339-50.1847 59.1147-52.6116 62.8677-52.6116C66.262-52.6116 67.9587-50.5658 67.9587-46.535L67.9587-27.4141L75.7681-27.4141L75.7681-47.1141C75.7681-51.1404 74.7424-54.3398 72.6824-56.7069C70.5574-59.074 67.7749-60.2875 64.321-60.2875Z"/>
  </g>
  <g id="Regular-S" transform="matrix(1 0 0 1 1396.88 696)">
   <path class="monochrome-0 SFSymbolsPreview000000" d="M53.4191-70C62.4648-69.9258 71.1719-68.9431 76.2424-66.6062C76.2424-66.6062 76.2599-66.5984 76.2933-66.5823L76.395-66.5317C77.6555-65.89 86.299-60.9686 86.299-46.6896L86.2997-46.5896C86.2999-46.5732 86.2999-46.5548 86.3002-46.5344L86.3013-46.3892C86.3013-46.3612 86.3013-46.3313 86.3013-46.2997L86.3013-45.8342C86.2957-43.0475 86.1738-34.0289 84.8964-27.4363C83.9263-22.4277 76.2069-16.9465 67.3414-15.8843C62.7184-15.3308 58.1666-14.822 53.313-15.0454C45.3754-15.4103 39.1119-16.9465 39.1119-16.9465C39.1119-16.1711 39.1597-15.4329 39.2549-14.7424C40.2427-7.21875 46.4557-6.46497 52.5812-6.22156L53.403-6.19141C59.8429-5.97034 65.5771-7.78467 65.5771-7.78467L65.8417-1.94275C65.8417-1.94275 61.3373 0.484375 53.313 0.930786C48.8883 1.17493 43.3942 0.819092 36.9951-0.880371C23.1166-4.56641 20.7297-19.4111 20.3645-34.4735C20.2532-38.9457 20.3218-43.1627 20.3218-46.6896C20.3218-61.129 29.1609-65.9994 30.2657-66.5518L30.3278-66.5823C30.3612-66.5984 30.3787-66.6062 30.3787-66.6062C35.4496-68.9431 44.1509-69.9258 53.1968-70L53.4191-70ZM63.6436-57.9655C59.8752-57.9655 57.0219-56.5122 55.1356-53.6055L53.3013-50.5204L51.4672-53.6055C49.5806-56.5122 46.7272-57.9655 42.9592-57.9655C39.7025-57.9655 37.079-56.8168 35.0757-54.5759C33.1329-52.3351 32.1658-49.3062 32.1658-45.4948L32.1658-26.8453L39.5291-26.8453L39.5291-44.9465C39.5291-48.7622 41.129-50.699 44.3293-50.699C47.8678-50.699 49.6415-48.4015 49.6415-43.8586L49.6415-33.9508L56.9613-33.9508L56.9613-43.8586C56.9613-48.4015 58.7347-50.699 62.2732-50.699C65.4734-50.699 67.0734-48.7622 67.0734-44.9465L67.0734-26.8453L74.4366-26.8453L74.4366-45.4948C74.4366-49.3062 73.4695-52.3351 71.5271-54.5759C69.5234-56.8168 66.8999-57.9655 63.6436-57.9655Z"/>
  </g>
  <g id="Ultralight-S" transform="matrix(1 0 0 1 508.101 696)">
   <path class="monochrome-0 SFSymbolsPreview000000" d="M51.5113-67C60.1459-66.929 68.4571-65.9878 73.2971-63.7496C73.2971-63.7496 73.3138-63.7421 73.3457-63.7267L73.4428-63.6783C74.646-63.0636 82.8965-58.3502 82.8965-44.6746L82.8972-44.5789C82.8974-44.5631 82.8975-44.5454 82.8976-44.5259L82.8987-44.3868C82.8987-44.36 82.8987-44.3314 82.8987-44.3011L82.8987-43.8553C82.8933-41.1863 82.777-32.5488 81.5577-26.2347C80.6316-21.4379 73.2633-16.1882 64.8008-15.1709C60.3879-14.6407 56.0431-14.1534 51.4101-14.3674C43.8332-14.7169 37.8546-16.1882 37.8546-16.1882C37.8546-15.4457 37.9001-14.7385 37.9911-14.0773C38.9339-6.87146 44.8645-6.14954 50.7115-5.9165L51.4959-5.88757C57.6431-5.67578 63.1167-7.41345 63.1167-7.41345L63.3692-1.81836C63.3692-1.81836 59.0695 0.506226 51.4101 0.933716C47.1864 1.16748 41.9421 0.826782 35.8339-0.801025C22.5863-4.3313 20.308-18.5487 19.9594-32.9747C19.8531-37.2578 19.9186-41.2966 19.9186-44.6746C19.9186-58.5038 28.3559-63.1685 29.4105-63.6975L29.4697-63.7267C29.5016-63.7421 29.5183-63.7496 29.5183-63.7496C34.3587-65.9878 42.6645-66.929 51.2991-67L51.5113-67ZM61.271-55.474C57.674-55.474 54.9503-54.0822 53.1498-51.2981L51.3988-48.3434L49.6482-51.2981C47.8473-54.0822 45.1236-55.474 41.5269-55.474C38.4182-55.474 35.914-54.3738 34.0017-52.2277C32.1474-50.0814 31.2242-47.1805 31.2242-43.5302L31.2242-25.6688L38.2527-25.6688L38.2527-43.0051C38.2527-46.6597 39.7799-48.5145 42.8347-48.5145C46.2123-48.5145 47.9055-46.3141 47.9055-41.9633L47.9055-32.474L54.8925-32.474L54.8925-41.9633C54.8925-46.3141 56.5853-48.5145 59.9629-48.5145C63.0177-48.5145 64.5449-46.6597 64.5449-43.0051L64.5449-25.6688L71.5734-25.6688L71.5734-43.5302C71.5734-47.1805 70.6502-50.0814 68.7962-52.2277C66.8836-54.3738 64.3794-55.474 61.271-55.474Z"/>
  </g>
 </g>
</svg>
