<?xml version="1.0" encoding="UTF-8"?>
<!--Generator: Apple Native CoreSVG 175.5-->
<!DOCTYPE svg
PUBLIC "-//W3C//DTD SVG 1.1//EN"
       "http://www.w3.org/Graphics/SVG/1.1/DTD/svg11.dtd">
<svg version="1.1" xmlns="http://www.w3.org/2000/svg" xmlns:xlink="http://www.w3.org/1999/xlink" width="3300" height="2200">
 <!--glyph: "", point size: 100.0, font version: "18.0d12e2", template writer version: "101"-->
 <style>.monochrome-0 {fill:#000000}

.SFSymbolsPreview000000 {fill:#000000;opacity:1.0}
</style>
 <g id="Notes">
  <rect height="2200" id="artboard" style="fill:white;opacity:1" width="3300" x="0" y="0"/>
  <line style="fill:none;stroke:black;opacity:1;stroke-width:0.5;" x1="263" x2="3036" y1="292" y2="292"/>
  <text style="stroke:none;fill:black;font-family:sans-serif;font-size:13;font-weight:bold;" transform="matrix(1 0 0 1 263 322)">Weight/Scale Variations</text>
  <text style="stroke:none;fill:black;font-family:sans-serif;font-size:13;text-anchor:middle;" transform="matrix(1 0 0 1 559.711 322)">Ultralight</text>
  <text style="stroke:none;fill:black;font-family:sans-serif;font-size:13;text-anchor:middle;" transform="matrix(1 0 0 1 856.422 322)">Thin</text>
  <text style="stroke:none;fill:black;font-family:sans-serif;font-size:13;text-anchor:middle;" transform="matrix(1 0 0 1 1153.13 322)">Light</text>
  <text style="stroke:none;fill:black;font-family:sans-serif;font-size:13;text-anchor:middle;" transform="matrix(1 0 0 1 1449.84 322)">Regular</text>
  <text style="stroke:none;fill:black;font-family:sans-serif;font-size:13;text-anchor:middle;" transform="matrix(1 0 0 1 1746.56 322)">Medium</text>
  <text style="stroke:none;fill:black;font-family:sans-serif;font-size:13;text-anchor:middle;" transform="matrix(1 0 0 1 2043.27 322)">Semibold</text>
  <text style="stroke:none;fill:black;font-family:sans-serif;font-size:13;text-anchor:middle;" transform="matrix(1 0 0 1 2339.98 322)">Bold</text>
  <text style="stroke:none;fill:black;font-family:sans-serif;font-size:13;text-anchor:middle;" transform="matrix(1 0 0 1 2636.69 322)">Heavy</text>
  <text style="stroke:none;fill:black;font-family:sans-serif;font-size:13;text-anchor:middle;" transform="matrix(1 0 0 1 2933.4 322)">Black</text>
  <line style="fill:none;stroke:black;opacity:1;stroke-width:0.5;" x1="263" x2="3036" y1="1903" y2="1903"/>
  <g transform="matrix(1 0 0 1 263 1933)">
   <path d="M9.24805 0.830078C13.5547 0.830078 17.1387-2.74414 17.1387-7.05078C17.1387-11.3574 13.5449-14.9316 9.23828-14.9316C4.94141-14.9316 1.36719-11.3574 1.36719-7.05078C1.36719-2.74414 4.95117 0.830078 9.24805 0.830078ZM9.24805-0.654297C5.70312-0.654297 2.87109-3.49609 2.87109-7.05078C2.87109-10.6055 5.69336-13.4473 9.23828-13.4473C12.793-13.4473 15.6445-10.6055 15.6445-7.05078C15.6445-3.49609 12.8027-0.654297 9.24805-0.654297ZM5.6543-7.05078C5.6543-6.62109 5.95703-6.32812 6.40625-6.32812L8.50586-6.32812L8.50586-4.20898C8.50586-3.76953 8.79883-3.4668 9.22852-3.4668C9.67773-3.4668 9.9707-3.76953 9.9707-4.20898L9.9707-6.32812L12.0898-6.32812C12.5293-6.32812 12.832-6.62109 12.832-7.05078C12.832-7.49023 12.5293-7.79297 12.0898-7.79297L9.9707-7.79297L9.9707-9.90234C9.9707-10.3516 9.67773-10.6543 9.22852-10.6543C8.79883-10.6543 8.50586-10.3516 8.50586-9.90234L8.50586-7.79297L6.40625-7.79297C5.95703-7.79297 5.6543-7.49023 5.6543-7.05078Z"/>
  </g>
  <g transform="matrix(1 0 0 1 281.867 1933)">
   <path d="M11.709 2.91016C17.1582 2.91016 21.6699-1.61133 21.6699-7.05078C21.6699-12.5 17.1484-17.0117 11.6992-17.0117C6.25977-17.0117 1.74805-12.5 1.74805-7.05078C1.74805-1.61133 6.26953 2.91016 11.709 2.91016ZM11.709 1.25C7.09961 1.25 3.41797-2.44141 3.41797-7.05078C3.41797-11.6602 7.08984-15.3516 11.6992-15.3516C16.3086-15.3516 20.0098-11.6602 20.0098-7.05078C20.0098-2.44141 16.3184 1.25 11.709 1.25ZM7.17773-7.05078C7.17773-6.57227 7.50977-6.25 8.00781-6.25L10.8789-6.25L10.8789-3.36914C10.8789-2.88086 11.2109-2.53906 11.6895-2.53906C12.1777-2.53906 12.5195-2.87109 12.5195-3.36914L12.5195-6.25L15.4004-6.25C15.8887-6.25 16.2305-6.57227 16.2305-7.05078C16.2305-7.53906 15.8887-7.88086 15.4004-7.88086L12.5195-7.88086L12.5195-10.752C12.5195-11.25 12.1777-11.5918 11.6895-11.5918C11.2109-11.5918 10.8789-11.25 10.8789-10.752L10.8789-7.88086L8.00781-7.88086C7.50977-7.88086 7.17773-7.53906 7.17773-7.05078Z"/>
  </g>
  <g transform="matrix(1 0 0 1 305.646 1933)">
   <path d="M14.9707 5.66406C21.9336 5.66406 27.6953-0.0976562 27.6953-7.05078C27.6953-14.0137 21.9238-19.7754 14.9609-19.7754C8.00781-19.7754 2.25586-14.0137 2.25586-7.05078C2.25586-0.0976562 8.01758 5.66406 14.9707 5.66406ZM14.9707 3.84766C8.93555 3.84766 4.08203-1.01562 4.08203-7.05078C4.08203-13.0957 8.92578-17.9492 14.9609-17.9492C21.0059-17.9492 25.8691-13.0957 25.8691-7.05078C25.8691-1.01562 21.0156 3.84766 14.9707 3.84766ZM9.19922-7.05078C9.19922-6.5332 9.57031-6.17188 10.1172-6.17188L14.0625-6.17188L14.0625-2.2168C14.0625-1.67969 14.4336-1.29883 14.9512-1.29883C15.4883-1.29883 15.8594-1.66992 15.8594-2.2168L15.8594-6.17188L19.8145-6.17188C20.3516-6.17188 20.7324-6.5332 20.7324-7.05078C20.7324-7.59766 20.3613-7.96875 19.8145-7.96875L15.8594-7.96875L15.8594-11.9141C15.8594-12.4609 15.4883-12.8418 14.9512-12.8418C14.4336-12.8418 14.0625-12.4609 14.0625-11.9141L14.0625-7.96875L10.1172-7.96875C9.57031-7.96875 9.19922-7.59766 9.19922-7.05078Z"/>
  </g>
  <text style="stroke:none;fill:black;font-family:sans-serif;font-size:13;font-weight:bold;" transform="matrix(1 0 0 1 263 1953)">Design Variations</text>
  <text style="stroke:none;fill:black;font-family:sans-serif;font-size:13;" transform="matrix(1 0 0 1 263 1971)">Symbols are supported in up to nine weights and three scales.</text>
  <text style="stroke:none;fill:black;font-family:sans-serif;font-size:13;" transform="matrix(1 0 0 1 263 1989)">For optimal layout with text and other symbols, vertically align</text>
  <text style="stroke:none;fill:black;font-family:sans-serif;font-size:13;" transform="matrix(1 0 0 1 263 2007)">symbols with the adjacent text.</text>
  <line style="fill:none;stroke:#00AEEF;stroke-width:0.5;opacity:1.0;" x1="776" x2="776" y1="1919" y2="1933"/>
  <g transform="matrix(1 0 0 1 776 1933)">
   <path d="M3.31055 0.15625C3.82812 0.15625 4.08203-0.0390625 4.26758-0.585938L5.52734-4.0332L11.2891-4.0332L12.5488-0.585938C12.7344-0.0390625 12.9883 0.15625 13.4961 0.15625C14.0137 0.15625 14.3457-0.15625 14.3457-0.644531C14.3457-0.810547 14.3164-0.966797 14.2383-1.17188L9.6582-13.3691C9.43359-13.9648 9.0332-14.2676 8.4082-14.2676C7.80273-14.2676 7.39258-13.9746 7.17773-13.3789L2.59766-1.16211C2.51953-0.957031 2.49023-0.800781 2.49023-0.634766C2.49023-0.146484 2.80273 0.15625 3.31055 0.15625ZM6.00586-5.51758L8.37891-12.0898L8.42773-12.0898L10.8008-5.51758Z"/>
  </g>
  <line style="fill:none;stroke:#00AEEF;stroke-width:0.5;opacity:1.0;" x1="793.197" x2="793.197" y1="1919" y2="1933"/>
  <text style="stroke:none;fill:black;font-family:sans-serif;font-size:13;font-weight:bold;" transform="matrix(1 0 0 1 776 1953)">Margins</text>
  <text style="stroke:none;fill:black;font-family:sans-serif;font-size:13;" transform="matrix(1 0 0 1 776 1971)">Leading and trailing margins on the left and right side of each symbol</text>
  <text style="stroke:none;fill:black;font-family:sans-serif;font-size:13;" transform="matrix(1 0 0 1 776 1989)">can be adjusted by modifying the x-location of the margin guidelines.</text>
  <text style="stroke:none;fill:black;font-family:sans-serif;font-size:13;" transform="matrix(1 0 0 1 776 2007)">Modifications are automatically applied proportionally to all</text>
  <text style="stroke:none;fill:black;font-family:sans-serif;font-size:13;" transform="matrix(1 0 0 1 776 2025)">scales and weights.</text>
  <g transform="matrix(1 0 0 1 1289 1933)">
   <path d="M2.8418 1.86523L4.54102 3.57422C5.40039 4.44336 6.38672 4.38477 7.31445 3.35938L18.0078-8.42773L17.041-9.4043L6.42578 2.27539C6.07422 2.67578 5.74219 2.77344 5.27344 2.30469L4.10156 1.14258C3.63281 0.683594 3.74023 0.341797 4.14062-0.0195312L15.6152-10.8203L14.6387-11.7871L3.04688-0.898438C2.06055 0.0195312 1.98242 0.996094 2.8418 1.86523ZM9.25781-16.3281C8.83789-15.918 8.80859-15.3418 9.04297-14.9512C9.27734-14.5898 9.73633-14.3555 10.3809-14.5215C11.8457-14.8633 13.3691-14.9219 14.7949-13.9844L14.209-12.5293C13.8672-11.6992 14.043-11.1133 14.5801-10.5664L16.875-8.25195C17.3633-7.76367 17.7734-7.74414 18.3398-7.8418L19.4043-8.03711L20.0684-7.36328L20.0293-6.80664C19.9902-6.30859 20.1172-5.92773 20.6055-5.44922L21.3672-4.70703C21.8457-4.22852 22.4609-4.19922 22.9297-4.66797L25.8398-7.58789C26.3086-8.05664 26.2891-8.65234 25.8105-9.13086L25.0391-9.89258C24.5605-10.3711 24.1895-10.5273 23.7109-10.4883L23.1348-10.4395L22.4902-11.0742L22.7344-12.1973C22.8613-12.7637 22.7051-13.2031 22.1191-13.7891L19.9219-15.9766C16.582-19.2969 12.1484-19.2188 9.25781-16.3281ZM10.752-15.957C13.1836-17.7344 16.4746-17.4316 18.7012-15.2051L21.1328-12.793C21.3672-12.5586 21.4062-12.373 21.3379-12.0312L21.0156-10.5469L22.5195-9.0625L23.5059-9.12109C23.7598-9.13086 23.8379-9.11133 24.0332-8.91602L24.6094-8.33984L22.168-5.89844L21.5918-6.47461C21.3965-6.66992 21.3672-6.74805 21.377-7.01172L21.4453-7.98828L19.9512-9.47266L18.4277-9.21875C18.1055-9.15039 17.959-9.17969 17.7148-9.41406L15.7129-11.416C15.459-11.6504 15.4297-11.8164 15.5859-12.1875L16.4648-14.2773C14.9023-15.7324 12.8711-16.3574 10.8398-15.7617C10.6836-15.7227 10.625-15.8496 10.752-15.957Z"/>
  </g>
  <text style="stroke:none;fill:black;font-family:sans-serif;font-size:13;font-weight:bold;" transform="matrix(1 0 0 1 1289 1953)">Exporting</text>
  <text style="stroke:none;fill:black;font-family:sans-serif;font-size:13;" transform="matrix(1 0 0 1 1289 1971)">Symbols should be outlined when exporting to ensure the</text>
  <text style="stroke:none;fill:black;font-family:sans-serif;font-size:13;" transform="matrix(1 0 0 1 1289 1989)">design is preserved when submitting to Xcode.</text>
  <text id="template-version" style="stroke:none;fill:black;font-family:sans-serif;font-size:13;text-anchor:end;" transform="matrix(1 0 0 1 3036 1933)">Template v.4.0</text>
  <text style="stroke:none;fill:black;font-family:sans-serif;font-size:13;text-anchor:end;" transform="matrix(1 0 0 1 3036 1951)">Requires Xcode 14 or greater</text>
  <text id="descriptive-name" style="stroke:none;fill:black;font-family:sans-serif;font-size:13;text-anchor:end;" transform="matrix(1 0 0 1 3036 1969)">Generated from twitter</text>
  <text style="stroke:none;fill:black;font-family:sans-serif;font-size:13;text-anchor:end;" transform="matrix(1 0 0 1 3036 1987)">Typeset at 100 points</text>
  <text style="stroke:none;fill:black;font-family:sans-serif;font-size:13;" transform="matrix(1 0 0 1 263 726)">Small</text>
  <text style="stroke:none;fill:black;font-family:sans-serif;font-size:13;" transform="matrix(1 0 0 1 263 1156)">Medium</text>
  <text style="stroke:none;fill:black;font-family:sans-serif;font-size:13;" transform="matrix(1 0 0 1 263 1586)">Large</text>
 </g>
 <g id="Guides">
  <g id="H-reference" style="fill:#27AAE1;stroke:none;" transform="matrix(1 0 0 1 339 696)">
   <path d="M0.993654 0L3.63775 0L29.3281-67.1323L30.0303-67.1323L30.0303-70.459L28.1226-70.459ZM11.6885-24.4799L46.9815-24.4799L46.2315-26.7285L12.4385-26.7285ZM55.1196 0L57.7637 0L30.6382-70.459L29.4326-70.459L29.4326-67.1323Z"/>
  </g>
  <line id="Baseline-S" style="fill:none;stroke:#27AAE1;opacity:1;stroke-width:0.5;" x1="263" x2="3036" y1="696" y2="696"/>
  <line id="Capline-S" style="fill:none;stroke:#27AAE1;opacity:1;stroke-width:0.5;" x1="263" x2="3036" y1="625.541" y2="625.541"/>
  <g id="H-reference" style="fill:#27AAE1;stroke:none;" transform="matrix(1 0 0 1 339 1126)">
   <path d="M0.993654 0L3.63775 0L29.3281-67.1323L30.0303-67.1323L30.0303-70.459L28.1226-70.459ZM11.6885-24.4799L46.9815-24.4799L46.2315-26.7285L12.4385-26.7285ZM55.1196 0L57.7637 0L30.6382-70.459L29.4326-70.459L29.4326-67.1323Z"/>
  </g>
  <line id="Baseline-M" style="fill:none;stroke:#27AAE1;opacity:1;stroke-width:0.5;" x1="263" x2="3036" y1="1126" y2="1126"/>
  <line id="Capline-M" style="fill:none;stroke:#27AAE1;opacity:1;stroke-width:0.5;" x1="263" x2="3036" y1="1055.54" y2="1055.54"/>
  <g id="H-reference" style="fill:#27AAE1;stroke:none;" transform="matrix(1 0 0 1 339 1556)">
   <path d="M0.993654 0L3.63775 0L29.3281-67.1323L30.0303-67.1323L30.0303-70.459L28.1226-70.459ZM11.6885-24.4799L46.9815-24.4799L46.2315-26.7285L12.4385-26.7285ZM55.1196 0L57.7637 0L30.6382-70.459L29.4326-70.459L29.4326-67.1323Z"/>
  </g>
  <line id="Baseline-L" style="fill:none;stroke:#27AAE1;opacity:1;stroke-width:0.5;" x1="263" x2="3036" y1="1556" y2="1556"/>
  <line id="Capline-L" style="fill:none;stroke:#27AAE1;opacity:1;stroke-width:0.5;" x1="263" x2="3036" y1="1485.54" y2="1485.54"/>
  <line id="left-margin-Ultralight-S" style="fill:none;stroke:#00AEEF;stroke-width:0.5;opacity:1.0;" x1="508.101" x2="508.101" y1="600.785" y2="720.121"/>
  <line id="right-margin-Ultralight-S" style="fill:none;stroke:#00AEEF;stroke-width:0.5;opacity:1.0;" x1="611.321" x2="611.321" y1="600.785" y2="720.121"/>
  <line id="left-margin-Regular-S" style="fill:none;stroke:#00AEEF;stroke-width:0.5;opacity:1.0;" x1="1396.88" x2="1396.88" y1="600.785" y2="720.121"/>
  <line id="right-margin-Regular-S" style="fill:none;stroke:#00AEEF;stroke-width:0.5;opacity:1.0;" x1="1502.8" x2="1502.8" y1="600.785" y2="720.121"/>
  <line id="left-margin-Black-S" style="fill:none;stroke:#00AEEF;stroke-width:0.5;opacity:1.0;" x1="2877.9" x2="2877.9" y1="600.785" y2="720.121"/>
  <line id="right-margin-Black-S" style="fill:none;stroke:#00AEEF;stroke-width:0.5;opacity:1.0;" x1="2988.9" x2="2988.9" y1="600.785" y2="720.121"/>
 </g>
 <g id="Symbols">
  <g id="Black-S" transform="matrix(1 0 0 1 2877.9 696)">
   <path class="monochrome-0 SFSymbolsPreview000000" d="M101-63.8266C98.4976-60.0762 95.3296-56.7804 91.6816-54.1359C91.7163-53.3319 91.7334-52.525 91.7334-51.7147C91.7334-26.9782 72.959 1.54486 38.6184 1.54486C28.0732 1.54486 14.3335-2.15833 10-6.86377C11.4639-6.68903 12.9514-6.60095 14.4561-6.60095C23.2046-6.60095 31.2551-9.59473 37.6426-14.6163C29.4727-14.7673 22.5786-20.1821 20.2017-27.6185C23.9185-27.0333 28.6333-27.941 28.6333-27.941C28.6333-27.941 14.0354-30.4534 13.6572-46.5295C17.8779-44.0754 22.1125-44.1887 22.1125-44.1887C22.1125-44.1887 13.6934-49.3865 13.811-59.7662C13.8801-65.889 16.334-69.1816 16.334-69.1816C32.2844-49.4855 54.8152-49.6208 54.8152-49.6208C54.8152-49.6208 54.3318-52.4179 54.3318-53.8841C54.3318-64.2198 62.6882-72.6033 72.9998-72.6033C78.3689-72.6033 83.2202-70.3285 86.625-66.6897C90.8816-67.533 94.8779-69.0903 98.4834-71.2346C96.8547-64.6949 90.2759-60.8784 90.2759-60.8784C90.2759-60.8784 95.907-61.5061 101-63.8266ZM51.1733-13.8439C54.0542-14.2922 77.7114-21.3526 79.4419-51.7147C79.468-52.188 79.4514-53.9155 79.4219-54.5626C79.4192-54.6188 79.4807-54.7608 79.5144-54.7941C79.615-54.8941 79.7107-55.0275 79.7773-55.1827C79.8032-55.2426 79.7949-55.3246 79.73-55.343C79.6074-55.3777 79.5068-55.4179 79.4338-55.4493C79.3486-55.4859 79.3469-55.5585 79.4011-55.6376C79.4553-55.7167 79.5176-55.8287 79.5503-55.9604C79.5588-55.9949 79.5435-56.0547 79.4724-56.0564C79.3828-56.0585 79.3062-56.0474 79.2502-56.0486C79.1904-56.0498 79.103-56.1002 79.0759-56.125C78.1951-56.9319 76.5491-58.7059 74.0024-58.7059C71.5813-58.7059 68.3274-56.3981 68.3274-49.3519C68.3274-47.1475 68.364-44.7836 68.4377-42.4697C68.5232-39.7982 66.1965-37.1926 62.4844-37.2831C56.3635-37.4323 46.813-38.1784 39.1628-41.0848C39.4209-40.2692 39.7722-39.5815 40.1057-39.0447C40.6345-38.1943 40.6072-37.29 39.7827-36.8007C38.9585-36.3115 37.8223-35.7659 36.574-35.541C39.5876-33.7518 42.6938-32.5019 44.5627-31.827C45.6404-31.4379 46.3516-30.5312 46.0369-29.4284C45.7273-28.3447 45.0706-26.8804 43.6816-25.3343C45.1235-24.8948 48.4351-24.684 50.9312-24.5849C52.6965-24.5148 53.9995-23.0706 53.6956-21.1617C53.3296-18.8639 52.6021-15.8718 51.1733-13.8439Z"/>
  </g>
  <g id="Regular-S" transform="matrix(1 0 0 1 1396.88 696)">
   <path class="monochrome-0 SFSymbolsPreview000000" d="M95.9199-61.8997C93.5573-58.3672 90.5667-55.2642 87.1201-52.776C87.1532-52.0192 87.1697-51.2592 87.1697-50.4958C87.1697-27.2025 69.4443-0.343628 37.0208-0.343628C27.0643-0.343628 14.0908-3.82977 10-8.26123C11.3812-8.09601 12.7856-8.01343 14.2065-8.01343C22.4678-8.01343 30.0681-10.8322 36.0989-15.5609C28.3861-15.7029 21.8763-20.8017 19.6326-27.804C23.1414-27.2532 27.593-28.108 27.593-28.108C27.593-28.108 13.8105-30.4736 13.4531-45.6118C17.4385-43.301 21.4368-43.4078 21.4368-43.4078C21.4368-43.4078 13.4877-48.3016 13.5985-58.0764C13.6639-63.8422 15.9811-66.9423 15.9811-66.9423C31.0419-48.3962 52.314-48.5231 52.314-48.5231C52.314-48.5231 51.8579-51.1567 51.8579-52.538C51.8579-62.2697 59.749-70.1642 69.484-70.1642C74.5531-70.1642 79.1332-68.0229 82.3485-64.5962C86.3667-65.3892 90.1404-66.8564 93.5441-68.8754C92.0062-62.718 85.795-59.1239 85.795-59.1239C85.795-59.1239 91.1117-59.7147 95.9199-61.8997ZM37.1022-7.50378C52.0208-6.83063 78.5516-18.9489 80.0096-50.4958C80.0229-50.7827 80.0671-51.296 80.0393-51.7595C80.0033-52.3581 80.301-52.7545 80.549-53.0157C80.9578-53.4466 81.3992-53.9719 81.8201-54.7535C82.1758-55.4138 81.9586-55.6945 81.5176-55.7718C81.2189-55.8242 80.9086-55.8994 80.566-55.9743C79.9521-56.1087 79.6847-56.6832 79.9762-57.2669C80.1736-57.6619 80.4355-58.2109 80.6295-58.7813C80.8206-59.3431 80.572-59.4714 80.1445-59.3972C79.7902-59.3357 79.3809-59.26 79.014-59.1915C78.4457-59.0852 77.8552-59.1997 77.2991-59.8397C75.1406-62.3238 72.8033-63.0043 69.484-63.0043C63.6737-63.0043 59.0179-58.3091 59.0179-52.538C59.0179-50.949 59.4277-49.0393 59.7142-47.1927C60.2488-43.7468 58.7239-40.4964 53.4413-40.908C45.6825-41.5126 33.7419-43.2122 24.6548-49.9194C25.5587-48.1309 27.7292-45.3666 29.4539-43.2919C30.7928-41.6813 30.3757-39.1852 28.6445-38.3726C27.7765-37.965 26.7235-37.6239 25.5135-37.4048C28.6882-34.8371 32.3359-33.1711 35.125-31.9874C38.6229-30.5027 39.5859-28.0919 37.4379-25.6896C36.6669-24.8275 35.6691-23.9559 34.3812-23.1794C35.9321-22.1086 38.53-21.2114 41.5031-20.7281C44.504-20.2402 46.4788-16.9434 43.3923-12.8553C41.8916-10.8675 39.745-8.95563 37.1022-7.50378Z"/>
  </g>
  <g id="Ultralight-S" transform="matrix(1 0 0 1 508.101 696)">
   <path class="monochrome-0 SFSymbolsPreview000000" d="M93.22-58.8723C90.9315-55.4509 88.0349-52.4454 84.6966-50.0353C84.7287-49.3023 84.7447-48.5662 84.7447-47.8268C84.7447-25.2654 67.5764 0.749329 36.1717 0.749329C26.5281 0.749329 13.9623-2.6272 10-6.91937C11.3379-6.7594 12.6982-6.67938 14.0744-6.67938C22.076-6.67938 29.4375-9.40955 35.2787-13.9896C27.8084-14.1272 21.5031-19.0658 19.3299-25.848C22.7284-25.3146 27.0403-26.1425 27.0403-26.1425C27.0403-26.1425 13.6908-28.4337 13.3446-43.0963C17.2047-40.858 21.0774-40.9615 21.0774-40.9615C21.0774-40.9615 13.3781-45.7015 13.4855-55.1691C13.5489-60.7537 15.7932-63.7564 15.7932-63.7564C30.3807-45.7932 50.9843-45.9161 50.9843-45.9161C50.9843-45.9161 50.5426-48.467 50.5426-49.8049C50.5426-59.2307 58.1858-66.8771 67.6148-66.8771C72.5246-66.8771 76.9607-64.8031 80.075-61.4841C83.9669-62.2522 87.622-63.6733 90.9187-65.6288C89.4293-59.6649 83.4132-56.1838 83.4132-56.1838C83.4132-56.1838 88.5628-56.756 93.22-58.8723ZM18.8624-4.79547C51.1693 7.52698 81.9606-15.1285 82.5547-47.8268C82.5598-48.106 82.4857-49.0611 82.5083-49.8824C82.5359-50.8928 82.8658-51.3973 83.5758-51.951C84.2855-52.5046 85.1829-53.1569 85.9506-53.8236C86.2065-54.0458 86.0648-54.4626 85.7805-54.4523C83.3633-54.3638 81.6574-54.4691 80.4957-54.5251C79.781-54.5597 79.3542-55.5297 79.9649-56.0332C81.0523-56.9296 82.721-58.2371 84.7123-59.9661C84.993-60.2098 84.8819-60.4785 84.5346-60.3675C83.0871-59.9047 81.6518-59.5678 80.6526-59.3583C79.8341-59.1866 79.1989-59.2936 78.646-59.9039C76.2065-62.597 72.0419-64.6871 67.6148-64.6871C57.8146-64.6871 52.7327-56.4914 52.7327-49.8049C52.7327-48.5184 52.9708-47.1042 53.1894-45.9438C53.5136-44.2222 52.7416-43.5385 50.9668-43.6457C44.6119-44.0297 28.7125-46.3694 16.3924-59.7458C13.6317-50.5034 19.4051-44.7212 23.076-42.015C24.4713-40.9865 24.3028-39.4175 22.1639-39.1539C20.5186-38.9512 18.3928-38.9386 15.8934-39.6381C17.0939-31.82 25.736-28.6641 29.6826-27.5268C30.5765-27.2692 31.0814-26.0621 29.4837-25.095C28.1114-24.2642 25.9915-23.4633 22.8521-23.3564C25.9015-18.1442 32.146-16.7781 36.5329-16.145C38.4753-15.8647 39.2773-13.9468 37.1897-12.3483C33.2874-9.36005 26.83-5.65057 18.8624-4.79547Z"/>
  </g>
 </g>
</svg>
