<?xml version="1.0" encoding="UTF-8"?>
<!--Generator: Apple Native CoreSVG 232.5-->
<!DOCTYPE svg
PUBLIC "-//W3C//DTD SVG 1.1//EN"
       "http://www.w3.org/Graphics/SVG/1.1/DTD/svg11.dtd">
<svg version="1.1" xmlns="http://www.w3.org/2000/svg" xmlns:xlink="http://www.w3.org/1999/xlink" width="3300" height="2200">
 <!--glyph: "", point size: 100.0, font version: "19.0d6e1", template writer version: "123"-->
 <style>.monochrome-0 {}

.multicolor-0:tintColor {}

.hierarchical-0:primary {}

.SFSymbolsPreview007AFF {fill:#007AFF;opacity:1.0}
</style>
 <g id="Notes">
  <rect height="2200" id="artboard" style="fill:white;opacity:1" width="3300" x="0" y="0"/>
  <line style="fill:none;stroke:black;opacity:1;stroke-width:0.5;" x1="263" x2="3036" y1="292" y2="292"/>
  <text style="stroke:none;fill:black;font-family:sans-serif;font-size:13;font-weight:bold;" transform="matrix(1 0 0 1 263 322)">Weight/Scale Variations</text>
  <text style="stroke:none;fill:black;font-family:sans-serif;font-size:13;text-anchor:middle;" transform="matrix(1 0 0 1 559.711 322)">Ultralight</text>
  <text style="stroke:none;fill:black;font-family:sans-serif;font-size:13;text-anchor:middle;" transform="matrix(1 0 0 1 856.422 322)">Thin</text>
  <text style="stroke:none;fill:black;font-family:sans-serif;font-size:13;text-anchor:middle;" transform="matrix(1 0 0 1 1153.13 322)">Light</text>
  <text style="stroke:none;fill:black;font-family:sans-serif;font-size:13;text-anchor:middle;" transform="matrix(1 0 0 1 1449.84 322)">Regular</text>
  <text style="stroke:none;fill:black;font-family:sans-serif;font-size:13;text-anchor:middle;" transform="matrix(1 0 0 1 1746.56 322)">Medium</text>
  <text style="stroke:none;fill:black;font-family:sans-serif;font-size:13;text-anchor:middle;" transform="matrix(1 0 0 1 2043.27 322)">Semibold</text>
  <text style="stroke:none;fill:black;font-family:sans-serif;font-size:13;text-anchor:middle;" transform="matrix(1 0 0 1 2339.98 322)">Bold</text>
  <text style="stroke:none;fill:black;font-family:sans-serif;font-size:13;text-anchor:middle;" transform="matrix(1 0 0 1 2636.69 322)">Heavy</text>
  <text style="stroke:none;fill:black;font-family:sans-serif;font-size:13;text-anchor:middle;" transform="matrix(1 0 0 1 2933.4 322)">Black</text>
  <line style="fill:none;stroke:black;opacity:1;stroke-width:0.5;" x1="263" x2="3036" y1="1903" y2="1903"/>
  <g transform="matrix(0.2 0 0 0.2 263 1933)">
   <path d="m46.2402 4.15039c21.5332 0 39.4531-17.8711 39.4531-39.4043s-17.9688-39.4043-39.502-39.4043c-21.4844 0-39.3555 17.8711-39.3555 39.4043s17.9199 39.4043 39.4043 39.4043Zm0-7.42188c-17.7246 0-31.8848-14.209-31.8848-31.9824s14.1113-31.9824 31.8359-31.9824c17.7734 0 32.0312 14.209 32.0312 31.9824s-14.209 31.9824-31.9824 31.9824Zm-17.9688-31.9824c0 2.14844 1.51367 3.61328 3.75977 3.61328h10.498v10.5957c0 2.19727 1.46484 3.71094 3.61328 3.71094 2.24609 0 3.71094-1.51367 3.71094-3.71094v-10.5957h10.5957c2.19727 0 3.71094-1.46484 3.71094-3.61328 0-2.19727-1.51367-3.71094-3.71094-3.71094h-10.5957v-10.5469c0-2.24609-1.46484-3.75977-3.71094-3.75977-2.14844 0-3.61328 1.51367-3.61328 3.75977v10.5469h-10.498c-2.24609 0-3.75977 1.51367-3.75977 3.71094Z"/>
  </g>
  <g transform="matrix(0.2 0 0 0.2 281.506 1933)">
   <path d="m58.5449 14.5508c27.2461 0 49.8047-22.6074 49.8047-49.8047 0-27.2461-22.6074-49.8047-49.8535-49.8047-27.1973 0-49.7559 22.5586-49.7559 49.8047 0 27.1973 22.6074 49.8047 49.8047 49.8047Zm0-8.30078c-23.0469 0-41.4551-18.457-41.4551-41.5039s18.3594-41.5039 41.4062-41.5039 41.5527 18.457 41.5527 41.5039-18.457 41.5039-41.5039 41.5039Zm-22.6562-41.5039c0 2.39258 1.66016 4.00391 4.15039 4.00391h14.3555v14.4043c0 2.44141 1.66016 4.15039 4.05273 4.15039 2.44141 0 4.15039-1.66016 4.15039-4.15039v-14.4043h14.4043c2.44141 0 4.15039-1.61133 4.15039-4.00391 0-2.44141-1.70898-4.15039-4.15039-4.15039h-14.4043v-14.3555c0-2.49023-1.70898-4.19922-4.15039-4.19922-2.39258 0-4.05273 1.70898-4.05273 4.19922v14.3555h-14.3555c-2.49023 0-4.15039 1.70898-4.15039 4.15039Z"/>
  </g>
  <g transform="matrix(0.2 0 0 0.2 304.924 1933)">
   <path d="m74.8535 28.3203c34.8145 0 63.623-28.8086 63.623-63.5742 0-34.8145-28.8574-63.623-63.6719-63.623-34.7656 0-63.5254 28.8086-63.5254 63.623 0 34.7656 28.8086 63.5742 63.5742 63.5742Zm0-9.08203c-30.1758 0-54.4434-24.3164-54.4434-54.4922 0-30.2246 24.2188-54.4922 54.3945-54.4922 30.2246 0 54.541 24.2676 54.541 54.4922 0 30.1758-24.2676 54.4922-54.4922 54.4922Zm-28.8574-54.4922c0 2.58789 1.85547 4.39453 4.58984 4.39453h19.7266v19.7754c0 2.68555 1.85547 4.58984 4.44336 4.58984 2.68555 0 4.54102-1.85547 4.54102-4.58984v-19.7754h19.7754c2.68555 0 4.58984-1.80664 4.58984-4.39453 0-2.73438-1.85547-4.58984-4.58984-4.58984h-19.7754v-19.7266c0-2.73438-1.85547-4.63867-4.54102-4.63867-2.58789 0-4.44336 1.9043-4.44336 4.63867v19.7266h-19.7266c-2.73438 0-4.58984 1.85547-4.58984 4.58984Z"/>
  </g>
  <text style="stroke:none;fill:black;font-family:sans-serif;font-size:13;font-weight:bold;" transform="matrix(1 0 0 1 263 1953)">Design Variations</text>
  <text style="stroke:none;fill:black;font-family:sans-serif;font-size:13;" transform="matrix(1 0 0 1 263 1971)">Symbols are supported in up to nine weights and three scales.</text>
  <text style="stroke:none;fill:black;font-family:sans-serif;font-size:13;" transform="matrix(1 0 0 1 263 1989)">For optimal layout with text and other symbols, vertically align</text>
  <text style="stroke:none;fill:black;font-family:sans-serif;font-size:13;" transform="matrix(1 0 0 1 263 2007)">symbols with the adjacent text.</text>
  <line style="fill:none;stroke:#00AEEF;stroke-width:0.5;opacity:1.0;" x1="776" x2="776" y1="1919" y2="1933"/>
  <g transform="matrix(0.2 0 0 0.2 776 1933)">
   <path d="m16.5527 0.78125c2.58789 0 3.85742-0.976562 4.78516-3.71094l6.29883-17.2363h28.8086l6.29883 17.2363c0.927734 2.73438 2.19727 3.71094 4.73633 3.71094 2.58789 0 4.24805-1.5625 4.24805-4.00391 0-0.830078-0.146484-1.61133-0.537109-2.63672l-22.9004-60.9863c-1.12305-2.97852-3.125-4.49219-6.25-4.49219-3.02734 0-5.07812 1.46484-6.15234 4.44336l-22.9004 61.084c-0.390625 1.02539-0.537109 1.80664-0.537109 2.63672 0 2.44141 1.5625 3.95508 4.10156 3.95508Zm13.4766-28.3691 11.8652-32.8613h0.244141l11.8652 32.8613Z"/>
  </g>
  <line style="fill:none;stroke:#00AEEF;stroke-width:0.5;opacity:1.0;" x1="792.836" x2="792.836" y1="1919" y2="1933"/>
  <text style="stroke:none;fill:black;font-family:sans-serif;font-size:13;font-weight:bold;" transform="matrix(1 0 0 1 776 1953)">Margins</text>
  <text style="stroke:none;fill:black;font-family:sans-serif;font-size:13;" transform="matrix(1 0 0 1 776 1971)">Leading and trailing margins on the left and right side of each symbol</text>
  <text style="stroke:none;fill:black;font-family:sans-serif;font-size:13;" transform="matrix(1 0 0 1 776 1989)">can be adjusted by modifying the x-location of the margin guidelines.</text>
  <text style="stroke:none;fill:black;font-family:sans-serif;font-size:13;" transform="matrix(1 0 0 1 776 2007)">Modifications are automatically applied proportionally to all</text>
  <text style="stroke:none;fill:black;font-family:sans-serif;font-size:13;" transform="matrix(1 0 0 1 776 2025)">scales and weights.</text>
  <g transform="matrix(0.2 0 0 0.2 1289 1933)">
   <path d="m14.209 9.32617 8.49609 8.54492c4.29688 4.3457 9.22852 4.05273 13.8672-1.07422l53.4668-58.9355-4.83398-4.88281-53.0762 58.3984c-1.75781 2.00195-3.41797 2.49023-5.76172 0.146484l-5.85938-5.81055c-2.34375-2.29492-1.80664-4.00391 0.195312-5.81055l57.373-54.0039-4.88281-4.83398-57.959 54.4434c-4.93164 4.58984-5.32227 9.47266-1.02539 13.8184Zm32.0801-90.9668c-2.09961 2.05078-2.24609 4.93164-1.07422 6.88477 1.17188 1.80664 3.4668 2.97852 6.68945 2.14844 7.32422-1.70898 14.9414-2.00195 22.0703 2.68555l-2.92969 7.27539c-1.70898 4.15039-0.830078 7.08008 1.85547 9.81445l11.4746 11.5723c2.44141 2.44141 4.49219 2.53906 7.32422 2.05078l5.32227-0.976562 3.32031 3.36914-0.195312 2.7832c-0.195312 2.49023 0.439453 4.39453 2.88086 6.78711l3.80859 3.71094c2.39258 2.39258 5.46875 2.53906 7.8125 0.195312l14.5508-14.5996c2.34375-2.34375 2.24609-5.32227-0.146484-7.71484l-3.85742-3.80859c-2.39258-2.39258-4.24805-3.17383-6.64062-2.97852l-2.88086 0.244141-3.22266-3.17383 1.2207-5.61523c0.634766-2.83203-0.146484-5.0293-3.07617-7.95898l-10.9863-10.9375c-16.6992-16.6016-38.8672-16.2109-53.3203-1.75781Zm7.4707 1.85547c12.1582-8.88672 28.6133-7.37305 39.7461 3.75977l12.1582 12.0605c1.17188 1.17188 1.36719 2.09961 1.02539 3.80859l-1.61133 7.42188 7.51953 7.42188 4.93164-0.292969c1.26953-0.0488281 1.66016 0.0488281 2.63672 1.02539l2.88086 2.88086-12.207 12.207-2.88086-2.88086c-0.976562-0.976562-1.12305-1.36719-1.07422-2.68555l0.341797-4.88281-7.4707-7.42188-7.61719 1.26953c-1.61133 0.341797-2.34375 0.195312-3.56445-0.976562l-10.0098-10.0098c-1.26953-1.17188-1.41602-2.00195-0.634766-3.85742l4.39453-10.4492c-7.8125-7.27539-17.9688-10.4004-28.125-7.42188-0.78125 0.195312-1.07422-0.439453-0.439453-0.976562Z"/>
  </g>
  <text style="stroke:none;fill:black;font-family:sans-serif;font-size:13;font-weight:bold;" transform="matrix(1 0 0 1 1289 1953)">Exporting</text>
  <text style="stroke:none;fill:black;font-family:sans-serif;font-size:13;" transform="matrix(1 0 0 1 1289 1971)">Symbols should be outlined when exporting to ensure the</text>
  <text style="stroke:none;fill:black;font-family:sans-serif;font-size:13;" transform="matrix(1 0 0 1 1289 1989)">design is preserved when submitting to Xcode.</text>
  <text id="template-version" style="stroke:none;fill:black;font-family:sans-serif;font-size:13;text-anchor:end;" transform="matrix(1 0 0 1 3036 1933)">Template v.4.0</text>
  <text style="stroke:none;fill:black;font-family:sans-serif;font-size:13;text-anchor:end;" transform="matrix(1 0 0 1 3036 1951)">Requires Xcode 14 or greater</text>
  <text id="descriptive-name" style="stroke:none;fill:black;font-family:sans-serif;font-size:13;text-anchor:end;" transform="matrix(1 0 0 1 3036 1969)">Generated from threads</text>
  <text style="stroke:none;fill:black;font-family:sans-serif;font-size:13;text-anchor:end;" transform="matrix(1 0 0 1 3036 1987)">Typeset at 100.0 points</text>
  <text style="stroke:none;fill:black;font-family:sans-serif;font-size:13;" transform="matrix(1 0 0 1 263 726)">Small</text>
  <text style="stroke:none;fill:black;font-family:sans-serif;font-size:13;" transform="matrix(1 0 0 1 263 1156)">Medium</text>
  <text style="stroke:none;fill:black;font-family:sans-serif;font-size:13;" transform="matrix(1 0 0 1 263 1586)">Large</text>
 </g>
 <g id="Guides">
  <g id="H-reference" style="fill:#27AAE1;stroke:none;" transform="matrix(1 0 0 1 339 696)">
   <path d="M0.993654 0L3.63775 0L29.3281-67.1323L30.0303-67.1323L30.0303-70.459L28.1226-70.459ZM11.6885-24.4799L46.9815-24.4799L46.2315-26.7285L12.4385-26.7285ZM55.1196 0L57.7637 0L30.6382-70.459L29.4326-70.459L29.4326-67.1323Z"/>
  </g>
  <line id="Baseline-S" style="fill:none;stroke:#27AAE1;opacity:1;stroke-width:0.5;" x1="263" x2="3036" y1="696" y2="696"/>
  <line id="Capline-S" style="fill:none;stroke:#27AAE1;opacity:1;stroke-width:0.5;" x1="263" x2="3036" y1="625.541" y2="625.541"/>
  <g id="H-reference" style="fill:#27AAE1;stroke:none;" transform="matrix(1 0 0 1 339 1126)">
   <path d="M0.993654 0L3.63775 0L29.3281-67.1323L30.0303-67.1323L30.0303-70.459L28.1226-70.459ZM11.6885-24.4799L46.9815-24.4799L46.2315-26.7285L12.4385-26.7285ZM55.1196 0L57.7637 0L30.6382-70.459L29.4326-70.459L29.4326-67.1323Z"/>
  </g>
  <line id="Baseline-M" style="fill:none;stroke:#27AAE1;opacity:1;stroke-width:0.5;" x1="263" x2="3036" y1="1126" y2="1126"/>
  <line id="Capline-M" style="fill:none;stroke:#27AAE1;opacity:1;stroke-width:0.5;" x1="263" x2="3036" y1="1055.54" y2="1055.54"/>
  <g id="H-reference" style="fill:#27AAE1;stroke:none;" transform="matrix(1 0 0 1 339 1556)">
   <path d="M0.993654 0L3.63775 0L29.3281-67.1323L30.0303-67.1323L30.0303-70.459L28.1226-70.459ZM11.6885-24.4799L46.9815-24.4799L46.2315-26.7285L12.4385-26.7285ZM55.1196 0L57.7637 0L30.6382-70.459L29.4326-70.459L29.4326-67.1323Z"/>
  </g>
  <line id="Baseline-L" style="fill:none;stroke:#27AAE1;opacity:1;stroke-width:0.5;" x1="263" x2="3036" y1="1556" y2="1556"/>
  <line id="Capline-L" style="fill:none;stroke:#27AAE1;opacity:1;stroke-width:0.5;" x1="263" x2="3036" y1="1485.54" y2="1485.54"/>
  <line id="left-margin-Ultralight-S" style="fill:none;stroke:#00AEEF;stroke-width:0.5;opacity:1.0;" x1="508.101" x2="508.101" y1="600.785" y2="720.121"/>
  <line id="right-margin-Ultralight-S" style="fill:none;stroke:#00AEEF;stroke-width:0.5;opacity:1.0;" x1="611.321" x2="611.321" y1="600.785" y2="720.121"/>
  <line id="left-margin-Regular-S" style="fill:none;stroke:#00AEEF;stroke-width:0.5;opacity:1.0;" x1="1396.88" x2="1396.88" y1="600.785" y2="720.121"/>
  <line id="right-margin-Regular-S" style="fill:none;stroke:#00AEEF;stroke-width:0.5;opacity:1.0;" x1="1502.8" x2="1502.8" y1="600.785" y2="720.121"/>
  <line id="left-margin-Black-S" style="fill:none;stroke:#00AEEF;stroke-width:0.5;opacity:1.0;" x1="2877.9" x2="2877.9" y1="600.785" y2="720.121"/>
  <line id="right-margin-Black-S" style="fill:none;stroke:#00AEEF;stroke-width:0.5;opacity:1.0;" x1="2988.9" x2="2988.9" y1="600.785" y2="720.121"/>
 </g>
 <g id="Symbols">
  <g id="Black-S" transform="matrix(1 0 0 1 2877.9 696)">
   <path class="monochrome-0 multicolor-0:tintColor hierarchical-0:primary SFSymbolsPreview007AFF" d="M73.6794-38.2389C73.354-38.3938 73.0234-38.5428 72.6885-38.6855C72.1054-49.3523 66.234-55.459 56.3752-55.5215C56.3305-55.5218 56.2861-55.5218 56.2414-55.5218C50.3446-55.5218 45.4402-53.0231 42.4217-48.4763L47.8437-44.7841C50.0987-48.1804 53.6377-48.9044 56.244-48.9044C56.2741-48.9044 56.3043-48.9044 56.3341-48.9041C59.5803-48.8836 62.0298-47.9466 63.6152-46.1195C64.769-44.7893 65.5406-42.9512 65.9227-40.6313C63.0446-41.1169 59.932-41.2662 56.6046-41.0768C47.2313-40.5409 41.2054-35.1141 41.6101-27.5734C41.8155-23.7484 43.7351-20.4578 47.015-18.3082C49.7882-16.491 53.3598-15.6023 57.0718-15.8035C61.9739-16.0703 65.8196-17.927 68.5025-21.3219C70.54-23.9 71.8288-27.241 72.3978-31.4508C74.734-30.0512 76.4654-28.2094 77.4216-25.9953C79.0475-22.2316 79.1424-16.0469 74.0587-11.0047C69.6047-6.5875 64.2507-4.67656 56.1594-4.61758C47.1839-4.68359 40.3958-7.54102 35.9825-13.1105C31.8497-18.3258 29.7138-25.8586 29.6342-35.5C29.7138-45.1415 31.8497-52.6744 35.9825-57.8896C40.3958-63.459 47.1838-66.3164 56.1592-66.3826C65.1998-66.3159 72.1062-63.4448 76.6885-57.8484C78.9354-55.1041 80.6294-51.6528 81.7461-47.6288L88.1-49.3116C86.7464-54.2648 84.6163-58.5329 81.7178-62.0727C75.8432-69.2474 67.2516-72.9238 56.1814-73L56.1371-73C45.0894-72.924 36.594-69.2337 30.8867-62.0315C25.808-55.6225 23.1883-46.7048 23.1-35.5264L23.1-35.5L23.1-35.4736C23.1883-24.2953 25.808-15.3773 30.8867-8.96836C36.594-1.76641 45.0894 1.92422 56.1371 2L56.1814 2C66.0034 1.93242 72.9266-0.620312 78.63-6.27695C86.092-13.6773 85.8673-22.9535 83.4079-28.648C81.6434-32.7316 78.2794-36.0484 73.6794-38.2389ZM56.7132-22.019C52.5959-21.792 48.3185-23.6008 48.1076-27.4751C47.9512-30.3477 50.1963-33.553 56.9659-33.9348C57.7412-33.9786 58.5019-34 59.2493-34C61.7082-34 64.0086-33.7662 66.1-33.3187C65.3199-23.7838 60.7444-22.2355 56.7132-22.019Z"/>
  </g>
  <g id="Regular-S" transform="matrix(1 0 0 1 1396.88 696)">
   <path class="monochrome-0 multicolor-0:tintColor hierarchical-0:primary SFSymbolsPreview007AFF" d="M69.8087-37.5563C69.5083-37.7009 69.2032-37.84 68.894-37.9731C68.3557-47.9288 62.936-53.6284 53.8355-53.6867C53.7943-53.687 53.7533-53.687 53.7121-53.687C48.2688-53.687 43.7418-51.3549 40.9554-47.1112L45.9603-43.6651C48.0419-46.835 51.3086-47.5108 53.7145-47.5108C53.7423-47.5108 53.7701-47.5108 53.7976-47.5105C56.7941-47.4913 59.0552-46.6169 60.5187-44.9116C61.5837-43.67 62.2959-41.9544 62.6486-39.7892C59.992-40.2425 57.1188-40.3818 54.0473-40.205C45.3951-39.7048 39.8327-34.6398 40.2063-27.6019C40.3958-24.0319 42.1677-20.9606 45.1954-18.9543C47.7552-17.2583 51.0521-16.4289 54.4786-16.6166C59.0036-16.8656 62.5535-18.5985 65.03-21.7671C66.9108-24.1733 68.1004-27.2916 68.6256-31.2207C70.7821-29.9144 72.3803-28.1954 73.263-26.129C74.7639-22.6162 74.8514-16.8438 70.1588-12.1377C66.0474-8.015 61.1053-6.23146 53.6363-6.17641C45.3513-6.23802 39.0854-8.90495 35.0115-14.1032C31.1966-18.9707 29.2251-26.0014 29.1515-35C29.2251-43.9987 31.1966-51.0294 35.0115-55.8969C39.0854-61.0951 45.3512-63.762 53.6362-63.8238C61.9814-63.7615 68.3565-61.0818 72.5863-55.8585C74.6603-53.2971 76.2241-50.076 77.2549-46.3202L83.12-47.8909C81.8705-52.5138 79.9043-56.4974 77.2288-59.8011C71.8061-66.4976 63.8753-69.9289 53.6567-70L53.6158-70C43.4179-69.9291 35.576-66.4848 30.3077-59.7628C25.6197-53.781 23.2015-45.4578 23.12-35.0246L23.12-35L23.12-34.9754C23.2015-24.5423 25.6197-16.2189 30.3077-10.2371C35.576-3.51531 43.4179-0.0707292 53.6158 0L53.6567 0C62.7231-0.0630729 69.1138-2.44563 74.3785-7.72516C81.2664-14.6322 81.059-23.2899 78.7888-28.6048C77.1601-32.4162 74.0548-35.5118 69.8087-37.5563ZM54.2547-23.0174C50.3662-22.8093 46.3263-24.4674 46.1271-28.0188C45.9795-30.652 48.0998-33.5903 54.4934-33.9403C55.2256-33.9804 55.944-34 56.6499-34C58.9722-34 61.1448-33.7857 63.12-33.3755C62.3833-24.6351 58.0619-23.2159 54.2547-23.0174Z"/>
  </g>
  <g id="Ultralight-S" transform="matrix(1 0 0 1 508.101 696)">
   <path class="monochrome-0 multicolor-0:tintColor hierarchical-0:primary SFSymbolsPreview007AFF" d="M67.8095-35.4833C67.5141-35.6237 67.2141-35.7588 66.9101-35.8882C66.3808-45.5594 61.0514-51.0961 52.1026-51.1528C52.0621-51.1531 52.0217-51.1531 51.9812-51.1531C46.6287-51.1531 42.1771-48.8876 39.4371-44.7652L44.3587-41.4176C46.4055-44.4969 49.6178-45.1533 51.9836-45.1533C52.0109-45.1533 52.0383-45.1533 52.0654-45.1531C55.0118-45.1344 57.2353-44.285 58.6743-42.6284C59.7216-41.4223 60.422-39.7557 60.7688-37.6524C58.1564-38.0927 55.3312-38.228 52.3109-38.0563C43.8028-37.5704 38.3331-32.6501 38.7005-25.8133C38.8869-22.3452 40.6293-19.3618 43.6065-17.4128C46.1236-15.7652 49.3656-14.9595 52.735-15.1419C57.1846-15.3837 60.6753-17.0671 63.1105-20.1452C64.96-22.4827 66.1297-25.5119 66.6462-29.3287C68.7668-28.0597 70.3383-26.3898 71.2063-24.3824C72.6821-20.97 72.7682-15.3625 68.1538-10.7909C64.1109-6.786 59.2512-5.05342 51.9067-4.99994C43.7598-5.05979 37.5983-7.65052 33.5923-12.7002C29.841-17.4287 27.9023-24.2585 27.83-33C27.9023-41.7416 29.841-48.5714 33.5923-53.2999C37.5983-58.3495 43.7597-60.9402 51.9066-61.0002C60.1127-60.9397 66.3815-58.3366 70.5409-53.2626C72.5803-50.7744 74.118-47.6452 75.1317-43.9968L80.899-45.5226C79.6703-50.0134 77.7369-53.8832 75.1059-57.0925C69.7736-63.5976 61.975-66.9309 51.9267-67L51.8865-67C41.8586-66.9311 34.1474-63.5852 28.9669-57.0552C24.3571-51.2444 21.9792-43.159 21.899-33.0239L21.899-33L21.899-32.9761C21.9792-22.8411 24.3571-14.7555 28.9669-8.94465C34.1474-2.41487 41.8586 0.931292 51.8865 1L51.9267 1C60.8421 0.938729 67.1262-1.37575 72.3032-6.50444C79.0763-13.2141 78.8724-21.6245 76.64-26.7876C75.0384-30.49 71.9849-33.4972 67.8095-35.4833ZM52.5552-21.0174C48.8954-20.8093 45.0932-22.4674 44.9057-26.0188C44.7668-28.652 46.7623-31.5903 52.7798-31.9403C53.4689-31.9804 54.1452-32 54.8095-32C56.9952-32 59.04-31.7857 60.899-31.3755C60.2056-22.6351 56.1384-21.2159 52.5552-21.0174Z"/>
  </g>
 </g>
</svg>
